<svg width="291" height="185" viewBox="0 0 291 185" fill="none" xmlns="http://www.w3.org/2000/svg">
<path d="M96.7118 99V92.838H93.5138C84.9858 92.838 80.7218 88.34 80.7218 79.344V64.446C80.7218 55.45 84.9858 50.952 93.5138 50.952H96.7118V44.4H105.136V50.952H108.334C116.862 50.952 121.126 55.45 121.126 64.446V79.344C121.126 88.34 116.862 92.838 108.334 92.838H105.136V99H96.7118ZM108.334 58.518H105.136V85.35H108.334C111.194 85.35 112.624 83.53 112.624 79.89V63.9C112.624 60.312 111.194 58.518 108.334 58.518ZM96.7118 85.35V58.518H93.5138C90.6538 58.518 89.2238 60.312 89.2238 63.9V79.89C89.2238 83.53 90.6538 85.35 93.5138 85.35H96.7118ZM145.228 73.962L138.052 99H129.238V44.4H136.882V78.954L140.002 66.942L147.022 44.4H156.46V99H148.738V60.546L145.228 73.962ZM162.369 52.2V44.4H188.889V52.2H179.919V99H171.339V52.2H162.369ZM203.588 75.6V99H195.008V44.4H203.588V67.8H213.338V44.4H222.074V99H213.338V75.6H203.588ZM239.215 52.2V67.41H250.993V75.21H239.215V91.2H254.035V99H230.635V44.4H254.035V52.2H239.215ZM278.462 78.642H286.574V85.896C286.574 90.316 285.482 93.722 283.298 96.114C281.114 98.454 277.942 99.624 273.782 99.624C269.622 99.624 266.45 98.454 264.266 96.114C262.082 93.722 260.99 90.316 260.99 85.896V57.504C260.99 53.084 262.082 49.704 264.266 47.364C266.45 44.972 269.622 43.776 273.782 43.776C277.942 43.776 281.114 44.972 283.298 47.364C285.482 49.704 286.574 53.084 286.574 57.504V62.808H278.462V56.958C278.462 53.37 276.98 51.576 274.016 51.576C271.052 51.576 269.57 53.37 269.57 56.958V86.442C269.57 89.978 271.052 91.746 274.016 91.746C276.98 91.746 278.462 89.978 278.462 86.442V78.642ZM127.715 177V122.4H136.295V169.2H146.045V122.4H154.781V169.356H158.525V184.332H150.179V177H127.715ZM174.131 130.2V145.41H185.909V153.21H174.131V169.2H188.951V177H165.551V122.4H188.951V130.2H174.131ZM205.188 153.6V177H196.608V122.4H205.188V145.8H214.938V122.4H223.674V177H214.938V153.6H205.188ZM229.739 130.2V122.4H256.259V130.2H247.289V177H238.709V130.2H229.739ZM275.014 122.4C283.542 122.4 287.806 126.898 287.806 135.894V142.992C287.806 151.988 283.542 156.486 275.014 156.486H270.958V177H262.378V122.4H275.014ZM275.014 130.2H270.958V148.686H275.014C276.418 148.686 277.458 148.296 278.134 147.516C278.862 146.736 279.226 145.41 279.226 143.538V135.348C279.226 133.476 278.862 132.15 278.134 131.37C277.458 130.59 276.418 130.2 275.014 130.2Z" fill="white"/>
<path d="M96.7118 99H94.7118V101H96.7118V99ZM96.7118 92.838H98.7118V90.838H96.7118V92.838ZM96.7118 50.952V52.952H98.7118V50.952H96.7118ZM96.7118 44.4V42.4H94.7118V44.4H96.7118ZM105.136 44.4H107.136V42.4H105.136V44.4ZM105.136 50.952H103.136V52.952H105.136V50.952ZM105.136 92.838V90.838H103.136V92.838H105.136ZM105.136 99V101H107.136V99H105.136ZM105.136 58.518V56.518H103.136V58.518H105.136ZM105.136 85.35H103.136V87.35H105.136V85.35ZM96.7118 85.35V87.35H98.7118V85.35H96.7118ZM96.7118 58.518H98.7118V56.518H96.7118V58.518ZM98.7118 99V92.838H94.7118V99H98.7118ZM96.7118 90.838H93.5138V94.838H96.7118V90.838ZM93.5138 90.838C89.5861 90.838 87.0007 89.8075 85.3712 88.0885C83.7227 86.3496 82.7218 83.5596 82.7218 79.344H78.7218C78.7218 84.1244 79.8528 88.0814 82.4683 90.8405C85.1028 93.6195 88.9134 94.838 93.5138 94.838V90.838ZM82.7218 79.344V64.446H78.7218V79.344H82.7218ZM82.7218 64.446C82.7218 60.2304 83.7227 57.4404 85.3712 55.7015C87.0007 53.9825 89.5861 52.952 93.5138 52.952V48.952C88.9134 48.952 85.1028 50.1705 82.4683 52.9495C79.8528 55.7086 78.7218 59.6656 78.7218 64.446H82.7218ZM93.5138 52.952H96.7118V48.952H93.5138V52.952ZM98.7118 50.952V44.4H94.7118V50.952H98.7118ZM96.7118 46.4H105.136V42.4H96.7118V46.4ZM103.136 44.4V50.952H107.136V44.4H103.136ZM105.136 52.952H108.334V48.952H105.136V52.952ZM108.334 52.952C112.261 52.952 114.847 53.9825 116.476 55.7015C118.125 57.4404 119.126 60.2304 119.126 64.446H123.126C123.126 59.6656 121.995 55.7086 119.379 52.9495C116.745 50.1705 112.934 48.952 108.334 48.952V52.952ZM119.126 64.446V79.344H123.126V64.446H119.126ZM119.126 79.344C119.126 83.5596 118.125 86.3496 116.476 88.0885C114.847 89.8075 112.261 90.838 108.334 90.838V94.838C112.934 94.838 116.745 93.6195 119.379 90.8405C121.995 88.0814 123.126 84.1244 123.126 79.344H119.126ZM108.334 90.838H105.136V94.838H108.334V90.838ZM103.136 92.838V99H107.136V92.838H103.136ZM105.136 97H96.7118V101H105.136V97ZM108.334 56.518H105.136V60.518H108.334V56.518ZM103.136 58.518V85.35H107.136V58.518H103.136ZM105.136 87.35H108.334V83.35H105.136V87.35ZM108.334 87.35C110.218 87.35 111.941 86.7262 113.124 85.2206C114.235 83.8069 114.624 81.9175 114.624 79.89H110.624C110.624 81.5025 110.298 82.3431 109.979 82.7494C109.732 83.0638 109.31 83.35 108.334 83.35V87.35ZM114.624 79.89V63.9H110.624V79.89H114.624ZM114.624 63.9C114.624 61.8936 114.233 60.0189 113.115 58.6169C111.929 57.1283 110.208 56.518 108.334 56.518V60.518C109.32 60.518 109.744 60.8047 109.987 61.1101C110.3 61.5021 110.624 62.3184 110.624 63.9H114.624ZM98.7118 85.35V58.518H94.7118V85.35H98.7118ZM96.7118 56.518H93.5138V60.518H96.7118V56.518ZM93.5138 56.518C91.6398 56.518 89.9189 57.1283 88.7323 58.6169C87.6147 60.0189 87.2238 61.8936 87.2238 63.9H91.2238C91.2238 62.3184 91.5478 61.5021 91.8602 61.1101C92.1036 60.8047 92.5277 60.518 93.5138 60.518V56.518ZM87.2238 63.9V79.89H91.2238V63.9H87.2238ZM87.2238 79.89C87.2238 81.9175 87.6128 83.8069 88.7236 85.2206C89.9066 86.7262 91.6297 87.35 93.5138 87.35V83.35C92.5378 83.35 92.1159 83.0638 91.8689 82.7494C91.5497 82.3431 91.2238 81.5025 91.2238 79.89H87.2238ZM93.5138 87.35H96.7118V83.35H93.5138V87.35ZM145.228 73.962L147.151 74.513L147.157 74.4907L147.163 74.4682L145.228 73.962ZM138.052 99V101H139.56L139.975 99.551L138.052 99ZM129.238 99H127.238V101H129.238V99ZM129.238 44.4V42.4H127.238V44.4H129.238ZM136.882 44.4H138.882V42.4H136.882V44.4ZM136.882 78.954H134.882L138.818 79.4568L136.882 78.954ZM140.002 66.942L138.093 66.3473L138.079 66.393L138.067 66.4392L140.002 66.942ZM147.022 44.4V42.4H145.55L145.113 43.8053L147.022 44.4ZM156.46 44.4H158.46V42.4H156.46V44.4ZM156.46 99V101H158.46V99H156.46ZM148.738 99H146.738V101H148.738V99ZM148.738 60.546H150.738L146.803 60.0398L148.738 60.546ZM143.306 73.411L136.13 98.449L139.975 99.551L147.151 74.513L143.306 73.411ZM138.052 97H129.238V101H138.052V97ZM131.238 99V44.4H127.238V99H131.238ZM129.238 46.4H136.882V42.4H129.238V46.4ZM134.882 44.4V78.954H138.882V44.4H134.882ZM138.818 79.4568L141.938 67.4448L138.067 66.4392L134.947 78.4512L138.818 79.4568ZM141.912 67.5367L148.932 44.9947L145.113 43.8053L138.093 66.3473L141.912 67.5367ZM147.022 46.4H156.46V42.4H147.022V46.4ZM154.46 44.4V99H158.46V44.4H154.46ZM156.46 97H148.738V101H156.46V97ZM150.738 99V60.546H146.738V99H150.738ZM146.803 60.0398L143.293 73.4558L147.163 74.4682L150.673 61.0522L146.803 60.0398ZM162.369 52.2H160.369V54.2H162.369V52.2ZM162.369 44.4V42.4H160.369V44.4H162.369ZM188.889 44.4H190.889V42.4H188.889V44.4ZM188.889 52.2V54.2H190.889V52.2H188.889ZM179.919 52.2V50.2H177.919V52.2H179.919ZM179.919 99V101H181.919V99H179.919ZM171.339 99H169.339V101H171.339V99ZM171.339 52.2H173.339V50.2H171.339V52.2ZM164.369 52.2V44.4H160.369V52.2H164.369ZM162.369 46.4H188.889V42.4H162.369V46.4ZM186.889 44.4V52.2H190.889V44.4H186.889ZM188.889 50.2H179.919V54.2H188.889V50.2ZM177.919 52.2V99H181.919V52.2H177.919ZM179.919 97H171.339V101H179.919V97ZM173.339 99V52.2H169.339V99H173.339ZM171.339 50.2H162.369V54.2H171.339V50.2ZM203.588 75.6V73.6H201.588V75.6H203.588ZM203.588 99V101H205.588V99H203.588ZM195.008 99H193.008V101H195.008V99ZM195.008 44.4V42.4H193.008V44.4H195.008ZM203.588 44.4H205.588V42.4H203.588V44.4ZM203.588 67.8H201.588V69.8H203.588V67.8ZM213.338 67.8V69.8H215.338V67.8H213.338ZM213.338 44.4V42.4H211.338V44.4H213.338ZM222.074 44.4H224.074V42.4H222.074V44.4ZM222.074 99V101H224.074V99H222.074ZM213.338 99H211.338V101H213.338V99ZM213.338 75.6H215.338V73.6H213.338V75.6ZM201.588 75.6V99H205.588V75.6H201.588ZM203.588 97H195.008V101H203.588V97ZM197.008 99V44.4H193.008V99H197.008ZM195.008 46.4H203.588V42.4H195.008V46.4ZM201.588 44.4V67.8H205.588V44.4H201.588ZM203.588 69.8H213.338V65.8H203.588V69.8ZM215.338 67.8V44.4H211.338V67.8H215.338ZM213.338 46.4H222.074V42.4H213.338V46.4ZM220.074 44.4V99H224.074V44.4H220.074ZM222.074 97H213.338V101H222.074V97ZM215.338 99V75.6H211.338V99H215.338ZM213.338 73.6H203.588V77.6H213.338V73.6ZM239.215 52.2V50.2H237.215V52.2H239.215ZM239.215 67.41H237.215V69.41H239.215V67.41ZM250.993 67.41H252.993V65.41H250.993V67.41ZM250.993 75.21V77.21H252.993V75.21H250.993ZM239.215 75.21V73.21H237.215V75.21H239.215ZM239.215 91.2H237.215V93.2H239.215V91.2ZM254.035 91.2H256.035V89.2H254.035V91.2ZM254.035 99V101H256.035V99H254.035ZM230.635 99H228.635V101H230.635V99ZM230.635 44.4V42.4H228.635V44.4H230.635ZM254.035 44.4H256.035V42.4H254.035V44.4ZM254.035 52.2V54.2H256.035V52.2H254.035ZM237.215 52.2V67.41H241.215V52.2H237.215ZM239.215 69.41H250.993V65.41H239.215V69.41ZM248.993 67.41V75.21H252.993V67.41H248.993ZM250.993 73.21H239.215V77.21H250.993V73.21ZM237.215 75.21V91.2H241.215V75.21H237.215ZM239.215 93.2H254.035V89.2H239.215V93.2ZM252.035 91.2V99H256.035V91.2H252.035ZM254.035 97H230.635V101H254.035V97ZM232.635 99V44.4H228.635V99H232.635ZM230.635 46.4H254.035V42.4H230.635V46.4ZM252.035 44.4V52.2H256.035V44.4H252.035ZM254.035 50.2H239.215V54.2H254.035V50.2ZM278.462 78.642V76.642H276.462V78.642H278.462ZM286.574 78.642H288.574V76.642H286.574V78.642ZM283.298 96.114L284.76 97.4786L284.768 97.4706L284.775 97.4625L283.298 96.114ZM264.266 96.114L262.789 97.4625L262.797 97.4706L262.804 97.4786L264.266 96.114ZM264.266 47.364L265.728 48.7286L265.736 48.7206L265.743 48.7125L264.266 47.364ZM283.298 47.364L281.821 48.7125L281.829 48.7206L281.836 48.7286L283.298 47.364ZM286.574 62.808V64.808H288.574V62.808H286.574ZM278.462 62.808H276.462V64.808H278.462V62.808ZM278.462 80.642H286.574V76.642H278.462V80.642ZM284.574 78.642V85.896H288.574V78.642H284.574ZM284.574 85.896C284.574 90.0009 283.562 92.8584 281.821 94.7655L284.775 97.4625C287.402 94.5856 288.574 90.6311 288.574 85.896H284.574ZM281.836 94.7494C280.135 96.5718 277.563 97.624 273.782 97.624V101.624C278.321 101.624 282.093 100.336 284.76 97.4786L281.836 94.7494ZM273.782 97.624C270.001 97.624 267.429 96.5718 265.728 94.7494L262.804 97.4786C265.471 100.336 269.243 101.624 273.782 101.624V97.624ZM265.743 94.7655C264.002 92.8584 262.99 90.0009 262.99 85.896H258.99C258.99 90.6311 260.162 94.5856 262.789 97.4625L265.743 94.7655ZM262.99 85.896V57.504H258.99V85.896H262.99ZM262.99 57.504C262.99 53.3958 264.003 50.577 265.728 48.7286L262.804 45.9994C260.161 48.831 258.99 52.7722 258.99 57.504H262.99ZM265.743 48.7125C267.447 46.8462 270.014 45.776 273.782 45.776V41.776C269.23 41.776 265.453 43.0978 262.789 46.0155L265.743 48.7125ZM273.782 45.776C277.55 45.776 280.117 46.8462 281.821 48.7125L284.775 46.0155C282.111 43.0978 278.334 41.776 273.782 41.776V45.776ZM281.836 48.7286C283.561 50.577 284.574 53.3958 284.574 57.504H288.574C288.574 52.7722 287.403 48.831 284.76 45.9994L281.836 48.7286ZM284.574 57.504V62.808H288.574V57.504H284.574ZM286.574 60.808H278.462V64.808H286.574V60.808ZM280.462 62.808V56.958H276.462V62.808H280.462ZM280.462 56.958C280.462 54.9388 280.053 53.0524 278.893 51.6477C277.672 50.1699 275.918 49.576 274.016 49.576V53.576C275.078 53.576 275.548 53.8791 275.809 54.1953C276.13 54.5846 276.462 55.3892 276.462 56.958H280.462ZM274.016 49.576C272.114 49.576 270.361 50.1699 269.14 51.6477C267.979 53.0524 267.57 54.9388 267.57 56.958H271.57C271.57 55.3892 271.902 54.5846 272.224 54.1953C272.485 53.8791 272.954 53.576 274.016 53.576V49.576ZM267.57 56.958V86.442H271.57V56.958H267.57ZM267.57 86.442C267.57 88.4407 267.982 90.3123 269.149 91.7048C270.373 93.1649 272.124 93.746 274.016 93.746V89.746C272.944 89.746 272.472 89.4431 272.214 89.1352C271.9 88.7597 271.57 87.9793 271.57 86.442H267.57ZM274.016 93.746C275.908 93.746 277.659 93.1649 278.883 91.7048C280.051 90.3123 280.462 88.4407 280.462 86.442H276.462C276.462 87.9793 276.133 88.7597 275.818 89.1352C275.56 89.4431 275.088 89.746 274.016 89.746V93.746ZM280.462 86.442V78.642H276.462V86.442H280.462ZM127.715 177H125.715V179H127.715V177ZM127.715 122.4V120.4H125.715V122.4H127.715ZM136.295 122.4H138.295V120.4H136.295V122.4ZM136.295 169.2H134.295V171.2H136.295V169.2ZM146.045 169.2V171.2H148.045V169.2H146.045ZM146.045 122.4V120.4H144.045V122.4H146.045ZM154.781 122.4H156.781V120.4H154.781V122.4ZM154.781 169.356H152.781V171.356H154.781V169.356ZM158.525 169.356H160.525V167.356H158.525V169.356ZM158.525 184.332V186.332H160.525V184.332H158.525ZM150.179 184.332H148.179V186.332H150.179V184.332ZM150.179 177H152.179V175H150.179V177ZM129.715 177V122.4H125.715V177H129.715ZM127.715 124.4H136.295V120.4H127.715V124.4ZM134.295 122.4V169.2H138.295V122.4H134.295ZM136.295 171.2H146.045V167.2H136.295V171.2ZM148.045 169.2V122.4H144.045V169.2H148.045ZM146.045 124.4H154.781V120.4H146.045V124.4ZM152.781 122.4V169.356H156.781V122.4H152.781ZM154.781 171.356H158.525V167.356H154.781V171.356ZM156.525 169.356V184.332H160.525V169.356H156.525ZM158.525 182.332H150.179V186.332H158.525V182.332ZM152.179 184.332V177H148.179V184.332H152.179ZM150.179 175H127.715V179H150.179V175ZM174.131 130.2V128.2H172.131V130.2H174.131ZM174.131 145.41H172.131V147.41H174.131V145.41ZM185.909 145.41H187.909V143.41H185.909V145.41ZM185.909 153.21V155.21H187.909V153.21H185.909ZM174.131 153.21V151.21H172.131V153.21H174.131ZM174.131 169.2H172.131V171.2H174.131V169.2ZM188.951 169.2H190.951V167.2H188.951V169.2ZM188.951 177V179H190.951V177H188.951ZM165.551 177H163.551V179H165.551V177ZM165.551 122.4V120.4H163.551V122.4H165.551ZM188.951 122.4H190.951V120.4H188.951V122.4ZM188.951 130.2V132.2H190.951V130.2H188.951ZM172.131 130.2V145.41H176.131V130.2H172.131ZM174.131 147.41H185.909V143.41H174.131V147.41ZM183.909 145.41V153.21H187.909V145.41H183.909ZM185.909 151.21H174.131V155.21H185.909V151.21ZM172.131 153.21V169.2H176.131V153.21H172.131ZM174.131 171.2H188.951V167.2H174.131V171.2ZM186.951 169.2V177H190.951V169.2H186.951ZM188.951 175H165.551V179H188.951V175ZM167.551 177V122.4H163.551V177H167.551ZM165.551 124.4H188.951V120.4H165.551V124.4ZM186.951 122.4V130.2H190.951V122.4H186.951ZM188.951 128.2H174.131V132.2H188.951V128.2ZM205.188 153.6V151.6H203.188V153.6H205.188ZM205.188 177V179H207.188V177H205.188ZM196.608 177H194.608V179H196.608V177ZM196.608 122.4V120.4H194.608V122.4H196.608ZM205.188 122.4H207.188V120.4H205.188V122.4ZM205.188 145.8H203.188V147.8H205.188V145.8ZM214.938 145.8V147.8H216.938V145.8H214.938ZM214.938 122.4V120.4H212.938V122.4H214.938ZM223.674 122.4H225.674V120.4H223.674V122.4ZM223.674 177V179H225.674V177H223.674ZM214.938 177H212.938V179H214.938V177ZM214.938 153.6H216.938V151.6H214.938V153.6ZM203.188 153.6V177H207.188V153.6H203.188ZM205.188 175H196.608V179H205.188V175ZM198.608 177V122.4H194.608V177H198.608ZM196.608 124.4H205.188V120.4H196.608V124.4ZM203.188 122.4V145.8H207.188V122.4H203.188ZM205.188 147.8H214.938V143.8H205.188V147.8ZM216.938 145.8V122.4H212.938V145.8H216.938ZM214.938 124.4H223.674V120.4H214.938V124.4ZM221.674 122.4V177H225.674V122.4H221.674ZM223.674 175H214.938V179H223.674V175ZM216.938 177V153.6H212.938V177H216.938ZM214.938 151.6H205.188V155.6H214.938V151.6ZM229.739 130.2H227.739V132.2H229.739V130.2ZM229.739 122.4V120.4H227.739V122.4H229.739ZM256.259 122.4H258.259V120.4H256.259V122.4ZM256.259 130.2V132.2H258.259V130.2H256.259ZM247.289 130.2V128.2H245.289V130.2H247.289ZM247.289 177V179H249.289V177H247.289ZM238.709 177H236.709V179H238.709V177ZM238.709 130.2H240.709V128.2H238.709V130.2ZM231.739 130.2V122.4H227.739V130.2H231.739ZM229.739 124.4H256.259V120.4H229.739V124.4ZM254.259 122.4V130.2H258.259V122.4H254.259ZM256.259 128.2H247.289V132.2H256.259V128.2ZM245.289 130.2V177H249.289V130.2H245.289ZM247.289 175H238.709V179H247.289V175ZM240.709 177V130.2H236.709V177H240.709ZM238.709 128.2H229.739V132.2H238.709V128.2ZM270.958 156.486V154.486H268.958V156.486H270.958ZM270.958 177V179H272.958V177H270.958ZM262.378 177H260.378V179H262.378V177ZM262.378 122.4V120.4H260.378V122.4H262.378ZM270.958 130.2V128.2H268.958V130.2H270.958ZM270.958 148.686H268.958V150.686H270.958V148.686ZM278.134 147.516L276.672 146.151L276.646 146.178L276.622 146.206L278.134 147.516ZM278.134 131.37L276.622 132.68L276.646 132.708L276.672 132.735L278.134 131.37ZM275.014 124.4C278.941 124.4 281.527 125.431 283.156 127.149C284.805 128.888 285.806 131.678 285.806 135.894H289.806C289.806 131.114 288.675 127.157 286.059 124.398C283.425 121.618 279.614 120.4 275.014 120.4V124.4ZM285.806 135.894V142.992H289.806V135.894H285.806ZM285.806 142.992C285.806 147.208 284.805 149.998 283.156 151.737C281.527 153.455 278.941 154.486 275.014 154.486V158.486C279.614 158.486 283.425 157.268 286.059 154.488C288.675 151.729 289.806 147.772 289.806 142.992H285.806ZM275.014 154.486H270.958V158.486H275.014V154.486ZM268.958 156.486V177H272.958V156.486H268.958ZM270.958 175H262.378V179H270.958V175ZM264.378 177V122.4H260.378V177H264.378ZM262.378 124.4H275.014V120.4H262.378V124.4ZM275.014 128.2H270.958V132.2H275.014V128.2ZM268.958 130.2V148.686H272.958V130.2H268.958ZM270.958 150.686H275.014V146.686H270.958V150.686ZM275.014 150.686C276.778 150.686 278.466 150.186 279.645 148.826L276.622 146.206C276.449 146.406 276.057 146.686 275.014 146.686V150.686ZM279.596 148.881C280.851 147.536 281.226 145.567 281.226 143.538H277.226C277.226 145.253 276.873 145.936 276.672 146.151L279.596 148.881ZM281.226 143.538V135.348H277.226V143.538H281.226ZM281.226 135.348C281.226 133.319 280.851 131.35 279.596 130.005L276.672 132.735C276.873 132.95 277.226 133.633 277.226 135.348H281.226ZM279.645 130.06C278.466 128.7 276.778 128.2 275.014 128.2V132.2C276.057 132.2 276.449 132.48 276.622 132.68L279.645 130.06Z" fill="white"/>
<path d="M240.952 16.268V6.132C240.952 4.60133 241.325 3.39733 242.072 2.52C242.837 1.64267 243.957 1.204 245.432 1.204C246.907 1.204 248.027 1.64267 248.792 2.52C249.557 3.39733 249.94 4.60133 249.94 6.132V16.268C249.94 17.7987 249.557 19.0027 248.792 19.88C248.027 20.7573 246.907 21.196 245.432 21.196C243.976 21.196 242.865 20.7573 242.1 19.88C241.335 19.0027 240.952 17.7987 240.952 16.268ZM243.108 6.02V16.38C243.108 18.2653 243.883 19.208 245.432 19.208C246.981 19.208 247.756 18.2653 247.756 16.38V6.02C247.756 4.13467 246.981 3.192 245.432 3.192C243.883 3.192 243.108 4.13467 243.108 6.02ZM263.175 5.236L260.067 20.972H257.967L254.719 5.376V21H252.815V1.4H255.867L259.087 17.052L262.195 1.4H265.247V21H263.175V5.236ZM272.567 1.204C274.042 1.204 275.143 1.64267 275.871 2.52C276.618 3.39733 276.991 4.60133 276.991 6.132V7.896H274.919V6.02C274.919 4.13467 274.154 3.192 272.623 3.192C271.092 3.192 270.327 4.13467 270.327 6.02V16.38C270.327 18.2653 271.092 19.208 272.623 19.208C274.154 19.208 274.919 18.2653 274.919 16.38V13.832H276.991V16.268C276.991 17.7987 276.618 19.0027 275.871 19.88C275.143 20.7573 274.042 21.196 272.567 21.196C271.111 21.196 270.01 20.7573 269.263 19.88C268.535 19.0027 268.171 17.7987 268.171 16.268V6.132C268.171 4.60133 268.535 3.39733 269.263 2.52C270.01 1.64267 271.111 1.204 272.567 1.204ZM287.348 21L283.148 12.488L282 14.42V21H279.816V1.4H282V10.864L287.208 1.4H289.42L284.464 10.332L289.588 21H287.348Z" fill="white"/>
<path d="M16.3672 124.127H13.749V133H12.498V124.127H9.88672V123.047H16.3672V124.127ZM22.2598 129.657C22.2598 130.828 22.0479 131.701 21.624 132.275C21.2048 132.85 20.61 133.137 19.8398 133.137C19.097 133.137 18.5251 132.856 18.124 132.296V135.844H16.9209V125.604H18.0146L18.0762 126.424C18.4818 125.786 19.0628 125.467 19.8193 125.467C20.6305 125.467 21.2367 125.749 21.6377 126.314C22.0387 126.88 22.2461 127.725 22.2598 128.851V129.657ZM21.0566 128.967C21.0566 128.137 20.929 127.527 20.6738 127.135C20.4186 126.738 20.0085 126.54 19.4434 126.54C18.8646 126.54 18.4248 126.829 18.124 127.408V131.257C18.4202 131.822 18.8646 132.104 19.457 132.104C20.0039 132.104 20.4049 131.909 20.6602 131.517C20.9199 131.12 21.0521 130.516 21.0566 129.705V128.967ZM26.4639 133.137C25.5433 133.137 24.8369 132.863 24.3447 132.316C23.8525 131.765 23.6019 130.958 23.5928 129.896V129.001C23.5928 127.898 23.832 127.035 24.3105 126.41C24.7936 125.781 25.4658 125.467 26.3271 125.467C27.193 125.467 27.8402 125.743 28.2686 126.294C28.6969 126.845 28.9157 127.704 28.9248 128.871V129.664H24.7959V129.835C24.7959 130.628 24.944 131.204 25.2402 131.564C25.541 131.924 25.9717 132.104 26.5322 132.104C26.8877 132.104 27.1999 132.038 27.4688 131.906C27.7422 131.77 27.9974 131.555 28.2344 131.264L28.8633 132.029C28.3392 132.768 27.5394 133.137 26.4639 133.137ZM26.3271 126.506C25.8258 126.506 25.4544 126.679 25.2129 127.025C24.9714 127.367 24.8346 127.9 24.8027 128.625H27.7148V128.461C27.6829 127.759 27.5553 127.258 27.332 126.957C27.1133 126.656 26.7783 126.506 26.3271 126.506ZM35.5762 133H34.373V129.842H31.707V133H30.4902V125.604H31.707V128.81H34.373V125.604H35.5762V133ZM41.3115 133C41.2386 132.84 41.1862 132.572 41.1543 132.193C40.7259 132.822 40.179 133.137 39.5137 133.137C38.8438 133.137 38.3197 132.95 37.9414 132.576C37.5677 132.198 37.3809 131.667 37.3809 130.983C37.3809 130.231 37.6361 129.634 38.1465 129.192C38.6569 128.75 39.3564 128.525 40.2451 128.516H41.1338V127.729C41.1338 127.287 41.0358 126.973 40.8398 126.786C40.6439 126.599 40.3454 126.506 39.9443 126.506C39.5798 126.506 39.2835 126.615 39.0557 126.834C38.8278 127.048 38.7139 127.322 38.7139 127.654H37.5039C37.5039 127.276 37.6156 126.916 37.8389 126.574C38.0622 126.228 38.363 125.957 38.7412 125.761C39.1195 125.565 39.541 125.467 40.0059 125.467C40.7624 125.467 41.3366 125.656 41.7285 126.034C42.125 126.408 42.3278 126.955 42.3369 127.675V131.407C42.3415 131.977 42.4189 132.471 42.5693 132.891V133H41.3115ZM39.6982 132.036C39.9945 132.036 40.277 131.954 40.5459 131.79C40.8148 131.626 41.0107 131.421 41.1338 131.175V129.411H40.4502C39.876 129.42 39.4225 129.55 39.0898 129.801C38.7572 130.047 38.5908 130.393 38.5908 130.84C38.5908 131.259 38.6751 131.564 38.8438 131.756C39.0124 131.943 39.2972 132.036 39.6982 132.036ZM49.2412 129.787H48.5371V133H47.334V129.787H46.6299L45.085 133H43.5674L45.6934 129.145L43.752 125.604H45.208L46.6436 128.666H47.334V125.604H48.5371V128.666H49.2139L50.6699 125.604H52.126L50.1777 129.151L52.3037 133H50.7793L49.2412 129.787ZM55.9951 133.137C55.0745 133.137 54.3682 132.863 53.876 132.316C53.3838 131.765 53.1331 130.958 53.124 129.896V129.001C53.124 127.898 53.3633 127.035 53.8418 126.41C54.3249 125.781 54.9971 125.467 55.8584 125.467C56.7243 125.467 57.3714 125.743 57.7998 126.294C58.2282 126.845 58.4469 127.704 58.4561 128.871V129.664H54.3271V129.835C54.3271 130.628 54.4753 131.204 54.7715 131.564C55.0723 131.924 55.5029 132.104 56.0635 132.104C56.4189 132.104 56.7311 132.038 57 131.906C57.2734 131.77 57.5286 131.555 57.7656 131.264L58.3945 132.029C57.8704 132.768 57.0706 133.137 55.9951 133.137ZM55.8584 126.506C55.3571 126.506 54.9857 126.679 54.7441 127.025C54.5026 127.367 54.3659 127.9 54.334 128.625H57.2461V128.461C57.2142 127.759 57.0866 127.258 56.8633 126.957C56.6445 126.656 56.3096 126.506 55.8584 126.506ZM53.623 123.628C53.623 123.423 53.6846 123.252 53.8076 123.115C53.9352 122.974 54.1221 122.903 54.3682 122.903C54.6143 122.903 54.8011 122.974 54.9287 123.115C55.0563 123.252 55.1201 123.423 55.1201 123.628C55.1201 123.833 55.0563 124.004 54.9287 124.141C54.8011 124.277 54.6143 124.346 54.3682 124.346C54.1221 124.346 53.9352 124.277 53.8076 124.141C53.6846 124.004 53.623 123.833 53.623 123.628ZM56.5625 123.642C56.5625 123.437 56.624 123.263 56.7471 123.122C56.8747 122.981 57.0615 122.91 57.3076 122.91C57.5537 122.91 57.7406 122.981 57.8682 123.122C57.9958 123.263 58.0596 123.437 58.0596 123.642C58.0596 123.847 57.9958 124.018 57.8682 124.154C57.7406 124.291 57.5537 124.359 57.3076 124.359C57.0615 124.359 56.8747 124.291 56.7471 124.154C56.624 124.018 56.5625 123.847 56.5625 123.642ZM65.2578 129.657C65.2578 130.828 65.0459 131.701 64.6221 132.275C64.2028 132.85 63.6081 133.137 62.8379 133.137C62.0951 133.137 61.5231 132.856 61.1221 132.296V135.844H59.9189V125.604H61.0127L61.0742 126.424C61.4798 125.786 62.0609 125.467 62.8174 125.467C63.6286 125.467 64.2347 125.749 64.6357 126.314C65.0368 126.88 65.2441 127.725 65.2578 128.851V129.657ZM64.0547 128.967C64.0547 128.137 63.9271 127.527 63.6719 127.135C63.4167 126.738 63.0065 126.54 62.4414 126.54C61.8626 126.54 61.4229 126.829 61.1221 127.408V131.257C61.4183 131.822 61.8626 132.104 62.4551 132.104C63.002 132.104 63.403 131.909 63.6582 131.517C63.918 131.12 64.0501 130.516 64.0547 129.705V128.967ZM72.0117 133H70.8086V129.842H68.1426V133H66.9258V125.604H68.1426V128.81H70.8086V125.604H72.0117V133ZM75.252 128.153H76.7764C77.4827 128.158 78.0456 128.374 78.4648 128.803C78.8841 129.231 79.0938 129.814 79.0938 130.553C79.0938 131.291 78.8818 131.883 78.458 132.33C78.0342 132.772 77.4736 132.995 76.7764 133H74.0488V125.604H75.252V128.153ZM81.3496 133H80.1396V125.604H81.3496V133ZM75.252 129.186V131.968H76.7559C77.1113 131.968 77.387 131.847 77.583 131.605C77.7835 131.364 77.8838 131.029 77.8838 130.601C77.8838 130.181 77.7858 129.842 77.5898 129.582C77.3939 129.322 77.125 129.19 76.7832 129.186H75.252ZM87.4541 125.604H88.6572V133H87.4541V127.606L84.7744 133H83.5645V125.604H84.7744V131.004L87.4541 125.604ZM88.165 122.91C88.165 123.462 87.9759 123.906 87.5977 124.243C87.224 124.576 86.7318 124.742 86.1211 124.742C85.5104 124.742 85.016 124.574 84.6377 124.236C84.2594 123.899 84.0703 123.457 84.0703 122.91H85.1025C85.1025 123.229 85.1891 123.48 85.3623 123.662C85.5355 123.84 85.7884 123.929 86.1211 123.929C86.4401 123.929 86.6885 123.84 86.8662 123.662C87.0485 123.484 87.1396 123.234 87.1396 122.91H88.165ZM98.3438 127.62C98.3438 127.953 98.2594 128.258 98.0908 128.536C97.9222 128.814 97.6829 129.035 97.373 129.199C98.0977 129.495 98.46 130.07 98.46 130.922C98.46 131.61 98.2344 132.15 97.7832 132.542C97.3366 132.934 96.7464 133.13 96.0127 133.13C95.2881 133.13 94.6911 132.923 94.2217 132.508C93.7568 132.089 93.5244 131.523 93.5244 130.812H94.7207C94.7207 131.177 94.8438 131.487 95.0898 131.742C95.3359 131.997 95.6436 132.125 96.0127 132.125C96.3864 132.125 96.6849 132.013 96.9082 131.79C97.1361 131.567 97.25 131.277 97.25 130.922C97.25 130.507 97.1566 130.211 96.9697 130.033C96.7874 129.851 96.498 129.76 96.1016 129.76H94.9941V128.693H96.1836C96.8216 128.671 97.1406 128.315 97.1406 127.627C97.1406 127.281 97.0404 127.007 96.8398 126.807C96.6439 126.602 96.3704 126.499 96.0195 126.499C95.6777 126.499 95.3906 126.613 95.1582 126.841C94.9303 127.069 94.8164 127.344 94.8164 127.668H93.6201C93.6201 127.025 93.848 126.499 94.3037 126.089C94.7594 125.679 95.3314 125.474 96.0195 125.474C96.7533 125.474 97.3229 125.66 97.7285 126.034C98.1387 126.408 98.3438 126.937 98.3438 127.62ZM103.86 133C103.787 132.84 103.735 132.572 103.703 132.193C103.275 132.822 102.728 133.137 102.062 133.137C101.393 133.137 100.868 132.95 100.49 132.576C100.117 132.198 99.9297 131.667 99.9297 130.983C99.9297 130.231 100.185 129.634 100.695 129.192C101.206 128.75 101.905 128.525 102.794 128.516H103.683V127.729C103.683 127.287 103.585 126.973 103.389 126.786C103.193 126.599 102.894 126.506 102.493 126.506C102.129 126.506 101.832 126.615 101.604 126.834C101.377 127.048 101.263 127.322 101.263 127.654H100.053C100.053 127.276 100.164 126.916 100.388 126.574C100.611 126.228 100.912 125.957 101.29 125.761C101.668 125.565 102.09 125.467 102.555 125.467C103.311 125.467 103.885 125.656 104.277 126.034C104.674 126.408 104.877 126.955 104.886 127.675V131.407C104.89 131.977 104.968 132.471 105.118 132.891V133H103.86ZM102.247 132.036C102.543 132.036 102.826 131.954 103.095 131.79C103.364 131.626 103.56 131.421 103.683 131.175V129.411H102.999C102.425 129.42 101.971 129.55 101.639 129.801C101.306 130.047 101.14 130.393 101.14 130.84C101.14 131.259 101.224 131.564 101.393 131.756C101.561 131.943 101.846 132.036 102.247 132.036ZM111.981 125.604V133H110.771V126.649H108.823L108.707 129.158C108.643 130.548 108.456 131.535 108.146 132.118C107.837 132.697 107.34 132.991 106.656 133H106.253V131.886L106.561 131.858C106.898 131.813 107.135 131.587 107.271 131.182C107.413 130.771 107.506 129.967 107.552 128.769L107.668 125.604H111.981ZM6.89941 145.127H2.98242V154H1.72461V144.047H6.89941V145.127ZM12.2656 150.657C12.2656 151.828 12.0537 152.701 11.6299 153.275C11.2106 153.85 10.6159 154.137 9.8457 154.137C9.10286 154.137 8.53092 153.856 8.12988 153.296V156.844H6.92676V146.604H8.02051L8.08203 147.424C8.48763 146.786 9.06868 146.467 9.8252 146.467C10.6364 146.467 11.2425 146.749 11.6436 147.314C12.0446 147.88 12.252 148.725 12.2656 149.851V150.657ZM11.0625 149.967C11.0625 149.137 10.9349 148.527 10.6797 148.135C10.4245 147.738 10.0143 147.54 9.44922 147.54C8.87044 147.54 8.43066 147.829 8.12988 148.408V152.257C8.42611 152.822 8.87044 153.104 9.46289 153.104C10.0098 153.104 10.4108 152.909 10.666 152.517C10.9258 152.12 11.0579 151.516 11.0625 150.705V149.967ZM15.7656 151.99L17.1123 146.604H18.3975L15.9775 155.046C15.7952 155.679 15.5378 156.16 15.2051 156.488C14.8724 156.821 14.4941 156.987 14.0703 156.987C13.9062 156.987 13.6966 156.951 13.4414 156.878V155.853L13.708 155.88C14.0589 155.88 14.3324 155.796 14.5283 155.627C14.7288 155.463 14.8906 155.176 15.0137 154.766L15.2529 153.938L13.0791 146.604H14.3984L15.7656 151.99ZM24.7822 154H23.5791V147.649H20.9062V154H19.6895V146.604H24.7822V154ZM31.9189 154H30.7158V147.649H28.043V154H26.8262V146.604H31.9189V154ZM33.6006 149.96C33.6006 148.884 33.8604 148.035 34.3799 147.41C34.904 146.781 35.5944 146.467 36.4512 146.467C37.3079 146.467 37.9961 146.772 38.5156 147.383C39.0397 147.993 39.3086 148.825 39.3223 149.878V150.657C39.3223 151.728 39.0625 152.576 38.543 153.2C38.0234 153.825 37.3307 154.137 36.4648 154.137C35.6081 154.137 34.9199 153.834 34.4004 153.228C33.8854 152.621 33.6188 151.801 33.6006 150.767V149.96ZM34.8105 150.657C34.8105 151.418 34.9587 152.018 35.2549 152.455C35.5557 152.888 35.959 153.104 36.4648 153.104C37.5312 153.104 38.0804 152.334 38.1123 150.794V149.96C38.1123 149.203 37.9619 148.606 37.6611 148.169C37.3604 147.727 36.957 147.506 36.4512 147.506C35.9544 147.506 35.5557 147.727 35.2549 148.169C34.9587 148.606 34.8105 149.201 34.8105 149.953V150.657ZM40.9902 154V146.604H43.4717C44.3193 146.604 44.9665 146.777 45.4131 147.123C45.8597 147.469 46.083 147.973 46.083 148.634C46.083 148.976 45.9941 149.283 45.8164 149.557C45.6387 149.83 45.3789 150.04 45.0371 150.186C45.4154 150.286 45.7184 150.489 45.9463 150.794C46.1787 151.099 46.2949 151.468 46.2949 151.901C46.2949 152.585 46.0807 153.107 45.6523 153.467C45.2285 153.822 44.627 154 43.8477 154H40.9902ZM42.1934 150.753V152.981H43.8613C44.6771 152.981 45.085 152.608 45.085 151.86C45.085 151.122 44.6725 150.753 43.8477 150.753H42.1934ZM42.1934 149.741H43.458C44.4014 149.741 44.873 149.395 44.873 148.702C44.873 148.005 44.4287 147.647 43.54 147.629H42.1934V149.741ZM49.248 149.153H50.7725C51.4788 149.158 52.0417 149.374 52.4609 149.803C52.8802 150.231 53.0898 150.814 53.0898 151.553C53.0898 152.291 52.8779 152.883 52.4541 153.33C52.0303 153.772 51.4697 153.995 50.7725 154H48.0449V146.604H49.248V149.153ZM55.3457 154H54.1357V146.604H55.3457V154ZM49.248 150.186V152.968H50.752C51.1074 152.968 51.3831 152.847 51.5791 152.605C51.7796 152.364 51.8799 152.029 51.8799 151.601C51.8799 151.181 51.7819 150.842 51.5859 150.582C51.39 150.322 51.1211 150.19 50.7793 150.186H49.248ZM60.0967 154.137C59.1761 154.137 58.4697 153.863 57.9775 153.316C57.4854 152.765 57.2347 151.958 57.2256 150.896V150.001C57.2256 148.898 57.4648 148.035 57.9434 147.41C58.4264 146.781 59.0986 146.467 59.96 146.467C60.8258 146.467 61.473 146.743 61.9014 147.294C62.3298 147.845 62.5485 148.704 62.5576 149.871V150.664H58.4287V150.835C58.4287 151.628 58.5768 152.204 58.873 152.564C59.1738 152.924 59.6045 153.104 60.165 153.104C60.5205 153.104 60.8327 153.038 61.1016 152.906C61.375 152.77 61.6302 152.555 61.8672 152.264L62.4961 153.029C61.972 153.768 61.1722 154.137 60.0967 154.137ZM59.96 147.506C59.4587 147.506 59.0872 147.679 58.8457 148.025C58.6042 148.367 58.4674 148.9 58.4355 149.625H61.3477V149.461C61.3158 148.759 61.1882 148.258 60.9648 147.957C60.7461 147.656 60.4111 147.506 59.96 147.506ZM71.7656 148.62C71.7656 148.953 71.6813 149.258 71.5127 149.536C71.3441 149.814 71.1048 150.035 70.7949 150.199C71.5195 150.495 71.8818 151.07 71.8818 151.922C71.8818 152.61 71.6562 153.15 71.2051 153.542C70.7585 153.934 70.1683 154.13 69.4346 154.13C68.71 154.13 68.113 153.923 67.6436 153.508C67.1787 153.089 66.9463 152.523 66.9463 151.812H68.1426C68.1426 152.177 68.2656 152.487 68.5117 152.742C68.7578 152.997 69.0654 153.125 69.4346 153.125C69.8083 153.125 70.1068 153.013 70.3301 152.79C70.5579 152.567 70.6719 152.277 70.6719 151.922C70.6719 151.507 70.5785 151.211 70.3916 151.033C70.2093 150.851 69.9199 150.76 69.5234 150.76H68.416V149.693H69.6055C70.2435 149.671 70.5625 149.315 70.5625 148.627C70.5625 148.281 70.4622 148.007 70.2617 147.807C70.0658 147.602 69.7923 147.499 69.4414 147.499C69.0996 147.499 68.8125 147.613 68.5801 147.841C68.3522 148.069 68.2383 148.344 68.2383 148.668H67.042C67.042 148.025 67.2699 147.499 67.7256 147.089C68.1813 146.679 68.7533 146.474 69.4414 146.474C70.1751 146.474 70.7448 146.66 71.1504 147.034C71.5605 147.408 71.7656 147.937 71.7656 148.62ZM77.2822 154C77.2093 153.84 77.1569 153.572 77.125 153.193C76.6966 153.822 76.1497 154.137 75.4844 154.137C74.8145 154.137 74.2904 153.95 73.9121 153.576C73.5384 153.198 73.3516 152.667 73.3516 151.983C73.3516 151.231 73.6068 150.634 74.1172 150.192C74.6276 149.75 75.3271 149.525 76.2158 149.516H77.1045V148.729C77.1045 148.287 77.0065 147.973 76.8105 147.786C76.6146 147.599 76.3161 147.506 75.915 147.506C75.5505 147.506 75.2542 147.615 75.0264 147.834C74.7985 148.048 74.6846 148.322 74.6846 148.654H73.4746C73.4746 148.276 73.5863 147.916 73.8096 147.574C74.0329 147.228 74.3337 146.957 74.7119 146.761C75.0902 146.565 75.5117 146.467 75.9766 146.467C76.7331 146.467 77.3073 146.656 77.6992 147.034C78.0957 147.408 78.2985 147.955 78.3076 148.675V152.407C78.3122 152.977 78.3896 153.471 78.54 153.891V154H77.2822ZM75.6689 153.036C75.9652 153.036 76.2477 152.954 76.5166 152.79C76.7855 152.626 76.9814 152.421 77.1045 152.175V150.411H76.4209C75.8467 150.42 75.3932 150.55 75.0605 150.801C74.7279 151.047 74.5615 151.393 74.5615 151.84C74.5615 152.259 74.6458 152.564 74.8145 152.756C74.9831 152.943 75.2679 153.036 75.6689 153.036ZM85.3828 154H84.1797V150.842H81.5137V154H80.2969V146.604H81.5137V149.81H84.1797V146.604H85.3828V154ZM92.1436 146.604V154H90.9336V151.122H89.5049L88.0146 154H86.7158L88.3154 150.91C87.9144 150.737 87.609 150.47 87.3994 150.11C87.1898 149.75 87.085 149.333 87.085 148.859C87.085 148.18 87.3037 147.636 87.7412 147.226C88.1787 146.811 88.7666 146.604 89.5049 146.604H92.1436ZM88.2949 148.873C88.2949 149.238 88.3929 149.532 88.5889 149.755C88.7848 149.974 89.0492 150.083 89.3818 150.083H90.9336V147.629H89.4912C89.1312 147.629 88.8418 147.745 88.623 147.978C88.4043 148.205 88.2949 148.504 88.2949 148.873ZM98.7402 147.629H96.7236V154H95.5205V147.629H93.5312V146.604H98.7402V147.629ZM104.011 146.604H105.214V154H104.011V148.606L101.331 154H100.121V146.604H101.331V152.004L104.011 146.604ZM111.981 146.604V154H110.771V151.122H109.343L107.853 154H106.554L108.153 150.91C107.752 150.737 107.447 150.47 107.237 150.11C107.028 149.75 106.923 149.333 106.923 148.859C106.923 148.18 107.142 147.636 107.579 147.226C108.017 146.811 108.604 146.604 109.343 146.604H111.981ZM108.133 148.873C108.133 149.238 108.231 149.532 108.427 149.755C108.623 149.974 108.887 150.083 109.22 150.083H110.771V147.629H109.329C108.969 147.629 108.68 147.745 108.461 147.978C108.242 148.205 108.133 148.504 108.133 148.873ZM42.7334 170.529H41.79V175H40.5391V165.047H41.79V169.436H42.5557L45.3584 165.047H46.917L43.7588 169.859L47.1494 175H45.6182L42.7334 170.529ZM51.9619 175C51.889 174.84 51.8366 174.572 51.8047 174.193C51.3763 174.822 50.8294 175.137 50.1641 175.137C49.4941 175.137 48.9701 174.95 48.5918 174.576C48.2181 174.198 48.0312 173.667 48.0312 172.983C48.0312 172.231 48.2865 171.634 48.7969 171.192C49.3073 170.75 50.0068 170.525 50.8955 170.516H51.7842V169.729C51.7842 169.287 51.6862 168.973 51.4902 168.786C51.2943 168.599 50.9958 168.506 50.5947 168.506C50.2301 168.506 49.9339 168.615 49.7061 168.834C49.4782 169.048 49.3643 169.322 49.3643 169.654H48.1543C48.1543 169.276 48.266 168.916 48.4893 168.574C48.7126 168.228 49.0133 167.957 49.3916 167.761C49.7699 167.565 50.1914 167.467 50.6562 167.467C51.4128 167.467 51.987 167.656 52.3789 168.034C52.7754 168.408 52.9782 168.955 52.9873 169.675V173.407C52.9919 173.977 53.0693 174.471 53.2197 174.891V175H51.9619ZM50.3486 174.036C50.6449 174.036 50.9274 173.954 51.1963 173.79C51.4652 173.626 51.6611 173.421 51.7842 173.175V171.411H51.1006C50.5264 171.42 50.0729 171.55 49.7402 171.801C49.4076 172.047 49.2412 172.393 49.2412 172.84C49.2412 173.259 49.3255 173.564 49.4941 173.756C49.6628 173.943 49.9476 174.036 50.3486 174.036ZM60.2129 171.657C60.2129 172.828 60.001 173.701 59.5771 174.275C59.1579 174.85 58.5632 175.137 57.793 175.137C57.0501 175.137 56.4782 174.856 56.0771 174.296V177.844H54.874V167.604H55.9678L56.0293 168.424C56.4349 167.786 57.016 167.467 57.7725 167.467C58.5837 167.467 59.1898 167.749 59.5908 168.314C59.9919 168.88 60.1992 169.725 60.2129 170.851V171.657ZM59.0098 170.967C59.0098 170.137 58.8822 169.527 58.627 169.135C58.3717 168.738 57.9616 168.54 57.3965 168.54C56.8177 168.54 56.3779 168.829 56.0771 169.408V173.257C56.3734 173.822 56.8177 174.104 57.4102 174.104C57.957 174.104 58.3581 173.909 58.6133 173.517C58.873 173.12 59.0052 172.516 59.0098 171.705V170.967ZM61.6348 173.968L61.9971 173.448C62.389 172.847 62.6146 171.96 62.6738 170.789L62.7764 167.604H66.9053V173.968H67.7666V177.174H66.5566V175H62.3525V177.174H61.1357L61.1426 173.968H61.6348ZM62.9814 173.968H65.7021V168.772H63.9521L63.8906 170.577C63.8268 172.017 63.5238 173.147 62.9814 173.968ZM73.1533 167.604H74.3564V175H73.1533V169.606L70.4736 175H69.2637V167.604H70.4736V173.004L73.1533 167.604ZM76.0381 170.96C76.0381 169.884 76.2979 169.035 76.8174 168.41C77.3415 167.781 78.0319 167.467 78.8887 167.467C79.7454 167.467 80.4336 167.772 80.9531 168.383C81.4772 168.993 81.7461 169.825 81.7598 170.878V171.657C81.7598 172.728 81.5 173.576 80.9805 174.2C80.4609 174.825 79.7682 175.137 78.9023 175.137C78.0456 175.137 77.3574 174.834 76.8379 174.228C76.3229 173.621 76.0563 172.801 76.0381 171.767V170.96ZM77.248 171.657C77.248 172.418 77.3962 173.018 77.6924 173.455C77.9932 173.888 78.3965 174.104 78.9023 174.104C79.9688 174.104 80.5179 173.334 80.5498 171.794V170.96C80.5498 170.203 80.3994 169.606 80.0986 169.169C79.7979 168.727 79.3945 168.506 78.8887 168.506C78.3919 168.506 77.9932 168.727 77.6924 169.169C77.3962 169.606 77.248 170.201 77.248 170.953V171.657ZM85.5605 171.288H82.7373V170.256H85.5605V171.288ZM91.3301 169.62C91.3301 169.953 91.2458 170.258 91.0771 170.536C90.9085 170.814 90.6693 171.035 90.3594 171.199C91.084 171.495 91.4463 172.07 91.4463 172.922C91.4463 173.61 91.2207 174.15 90.7695 174.542C90.3229 174.934 89.7327 175.13 88.999 175.13C88.2744 175.13 87.6774 174.923 87.208 174.508C86.7432 174.089 86.5107 173.523 86.5107 172.812H87.707C87.707 173.177 87.8301 173.487 88.0762 173.742C88.3223 173.997 88.6299 174.125 88.999 174.125C89.3727 174.125 89.6712 174.013 89.8945 173.79C90.1224 173.567 90.2363 173.277 90.2363 172.922C90.2363 172.507 90.1429 172.211 89.9561 172.033C89.7738 171.851 89.4844 171.76 89.0879 171.76H87.9805V170.693H89.1699C89.8079 170.671 90.127 170.315 90.127 169.627C90.127 169.281 90.0267 169.007 89.8262 168.807C89.6302 168.602 89.3568 168.499 89.0059 168.499C88.6641 168.499 88.377 168.613 88.1445 168.841C87.9167 169.069 87.8027 169.344 87.8027 169.668H86.6064C86.6064 169.025 86.8343 168.499 87.29 168.089C87.7458 167.679 88.3177 167.474 89.0059 167.474C89.7396 167.474 90.3092 167.66 90.7148 168.034C91.125 168.408 91.3301 168.937 91.3301 169.62ZM92.7861 170.96C92.7861 169.884 93.0459 169.035 93.5654 168.41C94.0895 167.781 94.7799 167.467 95.6367 167.467C96.4935 167.467 97.1816 167.772 97.7012 168.383C98.2253 168.993 98.4941 169.825 98.5078 170.878V171.657C98.5078 172.728 98.248 173.576 97.7285 174.2C97.209 174.825 96.5163 175.137 95.6504 175.137C94.7936 175.137 94.1055 174.834 93.5859 174.228C93.071 173.621 92.8044 172.801 92.7861 171.767V170.96ZM93.9961 171.657C93.9961 172.418 94.1442 173.018 94.4404 173.455C94.7412 173.888 95.1445 174.104 95.6504 174.104C96.7168 174.104 97.266 173.334 97.2979 171.794V170.96C97.2979 170.203 97.1475 169.606 96.8467 169.169C96.5459 168.727 96.1426 168.506 95.6367 168.506C95.14 168.506 94.7412 168.727 94.4404 169.169C94.1442 169.606 93.9961 170.201 93.9961 170.953V171.657ZM105.262 175H104.059V171.842H101.393V175H100.176V167.604H101.393V170.81H104.059V167.604H105.262V175ZM110.997 175C110.924 174.84 110.872 174.572 110.84 174.193C110.411 174.822 109.865 175.137 109.199 175.137C108.529 175.137 108.005 174.95 107.627 174.576C107.253 174.198 107.066 173.667 107.066 172.983C107.066 172.231 107.322 171.634 107.832 171.192C108.342 170.75 109.042 170.525 109.931 170.516H110.819V169.729C110.819 169.287 110.721 168.973 110.525 168.786C110.329 168.599 110.031 168.506 109.63 168.506C109.265 168.506 108.969 168.615 108.741 168.834C108.513 169.048 108.399 169.322 108.399 169.654H107.189C107.189 169.276 107.301 168.916 107.524 168.574C107.748 168.228 108.049 167.957 108.427 167.761C108.805 167.565 109.227 167.467 109.691 167.467C110.448 167.467 111.022 167.656 111.414 168.034C111.811 168.408 112.013 168.955 112.022 169.675V173.407C112.027 173.977 112.104 174.471 112.255 174.891V175H110.997ZM109.384 174.036C109.68 174.036 109.963 173.954 110.231 173.79C110.5 173.626 110.696 173.421 110.819 173.175V171.411H110.136C109.562 171.42 109.108 171.55 108.775 171.801C108.443 172.047 108.276 172.393 108.276 172.84C108.276 173.259 108.361 173.564 108.529 173.756C108.698 173.943 108.983 174.036 109.384 174.036Z" fill="white"/>
</svg>
