<svg width="57" height="63" viewBox="0 0 57 63" fill="none" xmlns="http://www.w3.org/2000/svg">
<path d="M9.88379 23.3086L3.54004 21.7227L5.60742 0.765625H25.5166V7.5625H12.1211L11.3564 16.4268C11.7907 16.1247 12.4326 15.7943 13.2822 15.4355C14.1507 15.0768 15.1136 14.8975 16.1709 14.8975C17.8701 14.8975 19.3805 15.209 20.7021 15.832C22.0238 16.4551 23.1377 17.3613 24.0439 18.5508C24.9502 19.7402 25.6393 21.194 26.1113 22.9121C26.5833 24.6302 26.8193 26.5749 26.8193 28.7461C26.8193 30.5775 26.5645 32.3239 26.0547 33.9854C25.5638 35.6468 24.818 37.1195 23.8174 38.4033C22.8167 39.6872 21.5612 40.7067 20.0508 41.4619C18.5404 42.1982 16.7751 42.5664 14.7549 42.5664C13.2256 42.5664 11.7435 42.3021 10.3086 41.7734C8.89258 41.2448 7.61816 40.4613 6.48535 39.4229C5.35254 38.3656 4.44629 37.1006 3.7666 35.6279C3.08691 34.1364 2.74707 32.4372 2.74707 30.5303H10.5918C10.6673 31.6442 10.8844 32.6165 11.2432 33.4473C11.6208 34.2591 12.0928 34.8822 12.6592 35.3164C13.2445 35.7507 13.9242 35.9678 14.6982 35.9678C15.4535 35.9678 16.1048 35.779 16.6523 35.4014C17.1999 35.0049 17.6341 34.4574 17.9551 33.7588C18.276 33.0602 18.512 32.2484 18.6631 31.3232C18.8141 30.3792 18.8896 29.3691 18.8896 28.293C18.8896 27.1979 18.7858 26.2067 18.5781 25.3193C18.3893 24.432 18.0872 23.6768 17.6719 23.0537C17.2754 22.4118 16.7656 21.9209 16.1426 21.5811C15.5195 21.2223 14.7832 21.043 13.9336 21.043C12.7819 21.043 11.9134 21.2884 11.3281 21.7793C10.7617 22.2513 10.2803 22.7611 9.88379 23.3086ZM54.9414 18.8906V26.2539H31.209V18.8906H54.9414ZM46.8701 7.8457V37.8652H39.3652V7.8457H46.8701Z" fill="url(#paint0_linear_1_638)"/>
<path d="M24.1182 54.6035V62H22.9082V55.6494H20.96L20.8438 58.1582C20.7799 59.5482 20.5931 60.5348 20.2832 61.1182C19.9733 61.6969 19.4766 61.9909 18.793 62H18.3896V60.8857L18.6973 60.8584C19.0345 60.8128 19.2715 60.5872 19.4082 60.1816C19.5495 59.7715 19.6429 58.9671 19.6885 57.7686L19.8047 54.6035H24.1182ZM28.6846 62.1367C27.764 62.1367 27.0576 61.8633 26.5654 61.3164C26.0732 60.765 25.8226 59.9583 25.8135 58.8965V58.001C25.8135 56.8981 26.0527 56.0345 26.5312 55.4102C27.0143 54.7812 27.6865 54.4668 28.5479 54.4668C29.4137 54.4668 30.0609 54.7425 30.4893 55.2939C30.9176 55.8454 31.1364 56.7044 31.1455 57.8711V58.6641H27.0166V58.835C27.0166 59.6279 27.1647 60.2044 27.4609 60.5645C27.7617 60.9245 28.1924 61.1045 28.7529 61.1045C29.1084 61.1045 29.4206 61.0384 29.6895 60.9062C29.9629 60.7695 30.2181 60.5553 30.4551 60.2637L31.084 61.0293C30.5599 61.7676 29.7601 62.1367 28.6846 62.1367ZM28.5479 55.5059C28.0465 55.5059 27.6751 55.679 27.4336 56.0254C27.1921 56.3672 27.0553 56.9004 27.0234 57.625H29.9355V57.4609C29.9036 56.7591 29.776 56.2578 29.5527 55.957C29.334 55.6562 28.999 55.5059 28.5479 55.5059ZM37.1953 55.6289H35.1787V62H33.9756V55.6289H31.9863V54.6035H37.1953V55.6289Z" fill="#2E35AC"/>
<defs>
<linearGradient id="paint0_linear_1_638" x1="0" y1="2" x2="25.7646" y2="49.8593" gradientUnits="userSpaceOnUse">
<stop stop-color="#D10A42"/>
<stop offset="1" stop-color="#0041CA"/>
</linearGradient>
</defs>
</svg>
