<svg width="377" height="264" viewBox="0 0 377 264" fill="none" xmlns="http://www.w3.org/2000/svg">
<path d="M105.495 144V135.389H101.026C89.1083 135.389 83.1496 129.103 83.1496 116.532V95.713C83.1496 83.1417 89.1083 76.856 101.026 76.856H105.495V67.7H117.267V76.856H121.736C133.653 76.856 139.612 83.1417 139.612 95.713V116.532C139.612 129.103 133.653 135.389 121.736 135.389H117.267V144H105.495ZM121.736 87.429H117.267V124.925H121.736C125.732 124.925 127.731 122.382 127.731 117.295V94.95C127.731 89.936 125.732 87.429 121.736 87.429ZM105.495 124.925V87.429H101.026C97.029 87.429 95.0306 89.936 95.0306 94.95V117.295C95.0306 122.382 97.029 124.925 101.026 124.925H105.495ZM173.293 109.011L163.265 144H150.948V67.7H161.63V115.987L165.99 99.201L175.8 67.7H188.989V144H178.198V90.263L173.293 109.011ZM197.247 78.6V67.7H234.307V78.6H221.772V144H209.782V78.6H197.247ZM254.848 111.3V144H242.858V67.7H254.848V100.4H268.473V67.7H280.681V144H268.473V111.3H254.848ZM304.634 78.6V99.855H321.093V110.755H304.634V133.1H325.344V144H292.644V67.7H325.344V78.6H304.634ZM359.479 115.551H370.815V125.688C370.815 131.865 369.289 136.624 366.237 139.967C363.185 143.237 358.752 144.872 352.939 144.872C347.126 144.872 342.693 143.237 339.641 139.967C336.589 136.624 335.063 131.865 335.063 125.688V86.012C335.063 79.8353 336.589 75.112 339.641 71.842C342.693 68.4993 347.126 66.828 352.939 66.828C358.752 66.828 363.185 68.4993 366.237 71.842C369.289 75.112 370.815 79.8353 370.815 86.012V93.424H359.479V85.249C359.479 80.235 357.408 77.728 353.266 77.728C349.124 77.728 347.053 80.235 347.053 85.249V126.451C347.053 131.392 349.124 133.863 353.266 133.863C357.408 133.863 359.479 131.392 359.479 126.451V115.551ZM148.82 253V176.7H160.81V242.1H174.435V176.7H186.643V242.318H191.875V263.246H180.212V253H148.82ZM213.683 187.6V208.855H230.142V219.755H213.683V242.1H234.393V253H201.693V176.7H234.393V187.6H213.683ZM257.083 220.3V253H245.093V176.7H257.083V209.4H270.708V176.7H282.916V253H270.708V220.3H257.083ZM291.392 187.6V176.7H328.452V187.6H315.917V253H303.927V187.6H291.392ZM354.66 176.7C366.577 176.7 372.536 182.986 372.536 195.557V205.476C372.536 218.047 366.577 224.333 354.66 224.333H348.992V253H337.002V176.7H354.66ZM354.66 187.6H348.992V213.433H354.66C356.622 213.433 358.075 212.888 359.02 211.798C360.037 210.708 360.546 208.855 360.546 206.239V194.794C360.546 192.178 360.037 190.325 359.02 189.235C358.075 188.145 356.622 187.6 354.66 187.6Z" fill="white"/>
<path d="M105.495 144H103.495V146H105.495V144ZM105.495 135.389H107.495V133.389H105.495V135.389ZM105.495 76.856V78.856H107.495V76.856H105.495ZM105.495 67.7V65.7H103.495V67.7H105.495ZM117.267 67.7H119.267V65.7H117.267V67.7ZM117.267 76.856H115.267V78.856H117.267V76.856ZM117.267 135.389V133.389H115.267V135.389H117.267ZM117.267 144V146H119.267V144H117.267ZM117.267 87.429V85.429H115.267V87.429H117.267ZM117.267 124.925H115.267V126.925H117.267V124.925ZM105.495 124.925V126.925H107.495V124.925H105.495ZM105.495 87.429H107.495V85.429H105.495V87.429ZM107.495 144V135.389H103.495V144H107.495ZM105.495 133.389H101.026V137.389H105.495V133.389ZM101.026 133.389C95.4033 133.389 91.5469 131.912 89.0701 129.299C86.5743 126.666 85.1496 122.535 85.1496 116.532H81.1496C81.1496 123.1 82.7043 128.398 86.1672 132.051C89.649 135.724 94.7306 137.389 101.026 137.389V133.389ZM85.1496 116.532V95.713H81.1496V116.532H85.1496ZM85.1496 95.713C85.1496 89.7098 86.5743 85.579 89.0701 82.9462C91.5469 80.3334 95.4033 78.856 101.026 78.856V74.856C94.7306 74.856 89.649 76.5214 86.1672 80.1943C82.7043 83.8472 81.1496 89.1449 81.1496 95.713H85.1496ZM101.026 78.856H105.495V74.856H101.026V78.856ZM107.495 76.856V67.7H103.495V76.856H107.495ZM105.495 69.7H117.267V65.7H105.495V69.7ZM115.267 67.7V76.856H119.267V67.7H115.267ZM117.267 78.856H121.736V74.856H117.267V78.856ZM121.736 78.856C127.358 78.856 131.214 80.3334 133.691 82.9462C136.187 85.579 137.612 89.7098 137.612 95.713H141.612C141.612 89.1449 140.057 83.8472 136.594 80.1943C133.112 76.5214 128.031 74.856 121.736 74.856V78.856ZM137.612 95.713V116.532H141.612V95.713H137.612ZM137.612 116.532C137.612 122.535 136.187 126.666 133.691 129.299C131.214 131.912 127.358 133.389 121.736 133.389V137.389C128.031 137.389 133.112 135.724 136.594 132.051C140.057 128.398 141.612 123.1 141.612 116.532H137.612ZM121.736 133.389H117.267V137.389H121.736V133.389ZM115.267 135.389V144H119.267V135.389H115.267ZM117.267 142H105.495V146H117.267V142ZM121.736 85.429H117.267V89.429H121.736V85.429ZM115.267 87.429V124.925H119.267V87.429H115.267ZM117.267 126.925H121.736V122.925H117.267V126.925ZM121.736 126.925C124.188 126.925 126.337 126.12 127.805 124.253C129.199 122.478 129.731 120.046 129.731 117.295H125.731C125.731 119.631 125.263 121.014 124.659 121.782C124.128 122.458 123.28 122.925 121.736 122.925V126.925ZM129.731 117.295V94.95H125.731V117.295H129.731ZM129.731 94.95C129.731 92.2306 129.198 89.8212 127.796 88.0626C126.325 86.2175 124.178 85.429 121.736 85.429V89.429C123.29 89.429 124.14 89.894 124.668 90.5559C125.265 91.3043 125.731 92.6554 125.731 94.95H129.731ZM107.495 124.925V87.429H103.495V124.925H107.495ZM105.495 85.429H101.026V89.429H105.495V85.429ZM101.026 85.429C98.5834 85.429 96.4362 86.2175 94.9654 88.0626C93.5637 89.8212 93.0306 92.2306 93.0306 94.95H97.0306C97.0306 92.6554 97.4967 91.3043 98.0933 90.5559C98.6209 89.894 99.4712 89.429 101.026 89.429V85.429ZM93.0306 94.95V117.295H97.0306V94.95H93.0306ZM93.0306 117.295C93.0306 120.046 93.5618 122.478 94.9567 124.253C96.4239 126.12 98.5733 126.925 101.026 126.925V122.925C99.4813 122.925 98.6332 122.458 98.102 121.782C97.4987 121.014 97.0306 119.631 97.0306 117.295H93.0306ZM101.026 126.925H105.495V122.925H101.026V126.925ZM173.293 109.011L175.216 109.562L175.222 109.54L175.228 109.517L173.293 109.011ZM163.265 144V146H164.773L165.188 144.551L163.265 144ZM150.948 144H148.948V146H150.948V144ZM150.948 67.7V65.7H148.948V67.7H150.948ZM161.63 67.7H163.63V65.7H161.63V67.7ZM161.63 115.987H159.63L163.566 116.49L161.63 115.987ZM165.99 99.201L164.081 98.6063L164.067 98.652L164.055 98.6982L165.99 99.201ZM175.8 67.7V65.7H174.329L173.891 67.1053L175.8 67.7ZM188.989 67.7H190.989V65.7H188.989V67.7ZM188.989 144V146H190.989V144H188.989ZM178.198 144H176.198V146H178.198V144ZM178.198 90.263H180.198L176.264 89.7568L178.198 90.263ZM171.371 108.46L161.343 143.449L165.188 144.551L175.216 109.562L171.371 108.46ZM163.265 142H150.948V146H163.265V142ZM152.948 144V67.7H148.948V144H152.948ZM150.948 69.7H161.63V65.7H150.948V69.7ZM159.63 67.7V115.987H163.63V67.7H159.63ZM163.566 116.49L167.926 99.7038L164.055 98.6982L159.695 115.484L163.566 116.49ZM167.9 99.7957L177.71 68.2947L173.891 67.1053L164.081 98.6063L167.9 99.7957ZM175.8 69.7H188.989V65.7H175.8V69.7ZM186.989 67.7V144H190.989V67.7H186.989ZM188.989 142H178.198V146H188.989V142ZM180.198 144V90.263H176.198V144H180.198ZM176.264 89.7568L171.359 108.505L175.228 109.517L180.133 90.7692L176.264 89.7568ZM197.247 78.6H195.247V80.6H197.247V78.6ZM197.247 67.7V65.7H195.247V67.7H197.247ZM234.307 67.7H236.307V65.7H234.307V67.7ZM234.307 78.6V80.6H236.307V78.6H234.307ZM221.772 78.6V76.6H219.772V78.6H221.772ZM221.772 144V146H223.772V144H221.772ZM209.782 144H207.782V146H209.782V144ZM209.782 78.6H211.782V76.6H209.782V78.6ZM199.247 78.6V67.7H195.247V78.6H199.247ZM197.247 69.7H234.307V65.7H197.247V69.7ZM232.307 67.7V78.6H236.307V67.7H232.307ZM234.307 76.6H221.772V80.6H234.307V76.6ZM219.772 78.6V144H223.772V78.6H219.772ZM221.772 142H209.782V146H221.772V142ZM211.782 144V78.6H207.782V144H211.782ZM209.782 76.6H197.247V80.6H209.782V76.6ZM254.848 111.3V109.3H252.848V111.3H254.848ZM254.848 144V146H256.848V144H254.848ZM242.858 144H240.858V146H242.858V144ZM242.858 67.7V65.7H240.858V67.7H242.858ZM254.848 67.7H256.848V65.7H254.848V67.7ZM254.848 100.4H252.848V102.4H254.848V100.4ZM268.473 100.4V102.4H270.473V100.4H268.473ZM268.473 67.7V65.7H266.473V67.7H268.473ZM280.681 67.7H282.681V65.7H280.681V67.7ZM280.681 144V146H282.681V144H280.681ZM268.473 144H266.473V146H268.473V144ZM268.473 111.3H270.473V109.3H268.473V111.3ZM252.848 111.3V144H256.848V111.3H252.848ZM254.848 142H242.858V146H254.848V142ZM244.858 144V67.7H240.858V144H244.858ZM242.858 69.7H254.848V65.7H242.858V69.7ZM252.848 67.7V100.4H256.848V67.7H252.848ZM254.848 102.4H268.473V98.4H254.848V102.4ZM270.473 100.4V67.7H266.473V100.4H270.473ZM268.473 69.7H280.681V65.7H268.473V69.7ZM278.681 67.7V144H282.681V67.7H278.681ZM280.681 142H268.473V146H280.681V142ZM270.473 144V111.3H266.473V144H270.473ZM268.473 109.3H254.848V113.3H268.473V109.3ZM304.634 78.6V76.6H302.634V78.6H304.634ZM304.634 99.855H302.634V101.855H304.634V99.855ZM321.093 99.855H323.093V97.855H321.093V99.855ZM321.093 110.755V112.755H323.093V110.755H321.093ZM304.634 110.755V108.755H302.634V110.755H304.634ZM304.634 133.1H302.634V135.1H304.634V133.1ZM325.344 133.1H327.344V131.1H325.344V133.1ZM325.344 144V146H327.344V144H325.344ZM292.644 144H290.644V146H292.644V144ZM292.644 67.7V65.7H290.644V67.7H292.644ZM325.344 67.7H327.344V65.7H325.344V67.7ZM325.344 78.6V80.6H327.344V78.6H325.344ZM302.634 78.6V99.855H306.634V78.6H302.634ZM304.634 101.855H321.093V97.855H304.634V101.855ZM319.093 99.855V110.755H323.093V99.855H319.093ZM321.093 108.755H304.634V112.755H321.093V108.755ZM302.634 110.755V133.1H306.634V110.755H302.634ZM304.634 135.1H325.344V131.1H304.634V135.1ZM323.344 133.1V144H327.344V133.1H323.344ZM325.344 142H292.644V146H325.344V142ZM294.644 144V67.7H290.644V144H294.644ZM292.644 69.7H325.344V65.7H292.644V69.7ZM323.344 67.7V78.6H327.344V67.7H323.344ZM325.344 76.6H304.634V80.6H325.344V76.6ZM359.479 115.551V113.551H357.479V115.551H359.479ZM370.815 115.551H372.815V113.551H370.815V115.551ZM366.237 139.967L367.699 141.332L367.707 141.324L367.714 141.316L366.237 139.967ZM339.641 139.967L338.164 141.316L338.172 141.324L338.179 141.332L339.641 139.967ZM339.641 71.842L341.103 73.2066L341.111 73.1986L341.118 73.1905L339.641 71.842ZM366.237 71.842L364.76 73.1905L364.768 73.1986L364.775 73.2066L366.237 71.842ZM370.815 93.424V95.424H372.815V93.424H370.815ZM359.479 93.424H357.479V95.424H359.479V93.424ZM359.479 117.551H370.815V113.551H359.479V117.551ZM368.815 115.551V125.688H372.815V115.551H368.815ZM368.815 125.688C368.815 131.55 367.369 135.761 364.76 138.618L367.714 141.316C371.209 137.488 372.815 132.18 372.815 125.688H368.815ZM364.775 138.602C362.206 141.355 358.373 142.872 352.939 142.872V146.872C359.132 146.872 364.164 145.119 367.699 141.332L364.775 138.602ZM352.939 142.872C347.505 142.872 343.672 141.355 341.103 138.602L338.179 141.332C341.714 145.119 346.746 146.872 352.939 146.872V142.872ZM341.118 138.618C338.509 135.761 337.063 131.55 337.063 125.688H333.063C333.063 132.18 334.669 137.488 338.164 141.316L341.118 138.618ZM337.063 125.688V86.012H333.063V125.688H337.063ZM337.063 86.012C337.063 80.1471 338.51 75.985 341.103 73.2066L338.179 70.4774C334.668 74.239 333.063 79.5235 333.063 86.012H337.063ZM341.118 73.1905C343.69 70.3735 347.518 68.828 352.939 68.828V64.828C346.733 64.828 341.696 66.6251 338.164 70.4935L341.118 73.1905ZM352.939 68.828C358.36 68.828 362.188 70.3735 364.76 73.1905L367.714 70.4935C364.182 66.6251 359.145 64.828 352.939 64.828V68.828ZM364.775 73.2066C367.368 75.985 368.815 80.1471 368.815 86.012H372.815C372.815 79.5235 371.21 74.239 367.699 70.4774L364.775 73.2066ZM368.815 86.012V93.424H372.815V86.012H368.815ZM370.815 91.424H359.479V95.424H370.815V91.424ZM361.479 93.424V85.249H357.479V93.424H361.479ZM361.479 85.249C361.479 82.5168 360.923 80.0957 359.468 78.3345C357.952 76.5001 355.757 75.728 353.266 75.728V79.728C354.917 79.728 355.828 80.2094 356.384 80.882C357 81.6278 357.479 82.9672 357.479 85.249H361.479ZM353.266 75.728C350.775 75.728 348.58 76.5001 347.064 78.3345C345.61 80.0957 345.053 82.5168 345.053 85.249H349.053C349.053 82.9672 349.532 81.6278 350.148 80.882C350.704 80.2094 351.615 79.728 353.266 79.728V75.728ZM345.053 85.249V126.451H349.053V85.249H345.053ZM345.053 126.451C345.053 129.152 345.612 131.551 347.074 133.295C348.592 135.106 350.785 135.863 353.266 135.863V131.863C351.605 131.863 350.692 131.384 350.139 130.725C349.53 129.998 349.053 128.691 349.053 126.451H345.053ZM353.266 135.863C355.747 135.863 357.94 135.106 359.459 133.295C360.92 131.551 361.479 129.152 361.479 126.451H357.479C357.479 128.691 357.002 129.998 356.393 130.725C355.841 131.384 354.927 131.863 353.266 131.863V135.863ZM361.479 126.451V115.551H357.479V126.451H361.479ZM148.82 253H146.82V255H148.82V253ZM148.82 176.7V174.7H146.82V176.7H148.82ZM160.81 176.7H162.81V174.7H160.81V176.7ZM160.81 242.1H158.81V244.1H160.81V242.1ZM174.435 242.1V244.1H176.435V242.1H174.435ZM174.435 176.7V174.7H172.435V176.7H174.435ZM186.643 176.7H188.643V174.7H186.643V176.7ZM186.643 242.318H184.643V244.318H186.643V242.318ZM191.875 242.318H193.875V240.318H191.875V242.318ZM191.875 263.246V265.246H193.875V263.246H191.875ZM180.212 263.246H178.212V265.246H180.212V263.246ZM180.212 253H182.212V251H180.212V253ZM150.82 253V176.7H146.82V253H150.82ZM148.82 178.7H160.81V174.7H148.82V178.7ZM158.81 176.7V242.1H162.81V176.7H158.81ZM160.81 244.1H174.435V240.1H160.81V244.1ZM176.435 242.1V176.7H172.435V242.1H176.435ZM174.435 178.7H186.643V174.7H174.435V178.7ZM184.643 176.7V242.318H188.643V176.7H184.643ZM186.643 244.318H191.875V240.318H186.643V244.318ZM189.875 242.318V263.246H193.875V242.318H189.875ZM191.875 261.246H180.212V265.246H191.875V261.246ZM182.212 263.246V253H178.212V263.246H182.212ZM180.212 251H148.82V255H180.212V251ZM213.683 187.6V185.6H211.683V187.6H213.683ZM213.683 208.855H211.683V210.855H213.683V208.855ZM230.142 208.855H232.142V206.855H230.142V208.855ZM230.142 219.755V221.755H232.142V219.755H230.142ZM213.683 219.755V217.755H211.683V219.755H213.683ZM213.683 242.1H211.683V244.1H213.683V242.1ZM234.393 242.1H236.393V240.1H234.393V242.1ZM234.393 253V255H236.393V253H234.393ZM201.693 253H199.693V255H201.693V253ZM201.693 176.7V174.7H199.693V176.7H201.693ZM234.393 176.7H236.393V174.7H234.393V176.7ZM234.393 187.6V189.6H236.393V187.6H234.393ZM211.683 187.6V208.855H215.683V187.6H211.683ZM213.683 210.855H230.142V206.855H213.683V210.855ZM228.142 208.855V219.755H232.142V208.855H228.142ZM230.142 217.755H213.683V221.755H230.142V217.755ZM211.683 219.755V242.1H215.683V219.755H211.683ZM213.683 244.1H234.393V240.1H213.683V244.1ZM232.393 242.1V253H236.393V242.1H232.393ZM234.393 251H201.693V255H234.393V251ZM203.693 253V176.7H199.693V253H203.693ZM201.693 178.7H234.393V174.7H201.693V178.7ZM232.393 176.7V187.6H236.393V176.7H232.393ZM234.393 185.6H213.683V189.6H234.393V185.6ZM257.083 220.3V218.3H255.083V220.3H257.083ZM257.083 253V255H259.083V253H257.083ZM245.093 253H243.093V255H245.093V253ZM245.093 176.7V174.7H243.093V176.7H245.093ZM257.083 176.7H259.083V174.7H257.083V176.7ZM257.083 209.4H255.083V211.4H257.083V209.4ZM270.708 209.4V211.4H272.708V209.4H270.708ZM270.708 176.7V174.7H268.708V176.7H270.708ZM282.916 176.7H284.916V174.7H282.916V176.7ZM282.916 253V255H284.916V253H282.916ZM270.708 253H268.708V255H270.708V253ZM270.708 220.3H272.708V218.3H270.708V220.3ZM255.083 220.3V253H259.083V220.3H255.083ZM257.083 251H245.093V255H257.083V251ZM247.093 253V176.7H243.093V253H247.093ZM245.093 178.7H257.083V174.7H245.093V178.7ZM255.083 176.7V209.4H259.083V176.7H255.083ZM257.083 211.4H270.708V207.4H257.083V211.4ZM272.708 209.4V176.7H268.708V209.4H272.708ZM270.708 178.7H282.916V174.7H270.708V178.7ZM280.916 176.7V253H284.916V176.7H280.916ZM282.916 251H270.708V255H282.916V251ZM272.708 253V220.3H268.708V253H272.708ZM270.708 218.3H257.083V222.3H270.708V218.3ZM291.392 187.6H289.392V189.6H291.392V187.6ZM291.392 176.7V174.7H289.392V176.7H291.392ZM328.452 176.7H330.452V174.7H328.452V176.7ZM328.452 187.6V189.6H330.452V187.6H328.452ZM315.917 187.6V185.6H313.917V187.6H315.917ZM315.917 253V255H317.917V253H315.917ZM303.927 253H301.927V255H303.927V253ZM303.927 187.6H305.927V185.6H303.927V187.6ZM293.392 187.6V176.7H289.392V187.6H293.392ZM291.392 178.7H328.452V174.7H291.392V178.7ZM326.452 176.7V187.6H330.452V176.7H326.452ZM328.452 185.6H315.917V189.6H328.452V185.6ZM313.917 187.6V253H317.917V187.6H313.917ZM315.917 251H303.927V255H315.917V251ZM305.927 253V187.6H301.927V253H305.927ZM303.927 185.6H291.392V189.6H303.927V185.6ZM348.992 224.333V222.333H346.992V224.333H348.992ZM348.992 253V255H350.992V253H348.992ZM337.002 253H335.002V255H337.002V253ZM337.002 176.7V174.7H335.002V176.7H337.002ZM348.992 187.6V185.6H346.992V187.6H348.992ZM348.992 213.433H346.992V215.433H348.992V213.433ZM359.02 211.798L357.558 210.433L357.533 210.46L357.509 210.488L359.02 211.798ZM359.02 189.235L357.509 190.545L357.533 190.573L357.558 190.6L359.02 189.235ZM354.66 178.7C360.282 178.7 364.139 180.177 366.616 182.79C369.111 185.423 370.536 189.554 370.536 195.557H374.536C374.536 188.989 372.981 183.691 369.519 180.038C366.037 176.365 360.955 174.7 354.66 174.7V178.7ZM370.536 195.557V205.476H374.536V195.557H370.536ZM370.536 205.476C370.536 211.479 369.111 215.61 366.616 218.243C364.139 220.856 360.282 222.333 354.66 222.333V226.333C360.955 226.333 366.037 224.668 369.519 220.995C372.981 217.342 374.536 212.044 374.536 205.476H370.536ZM354.66 222.333H348.992V226.333H354.66V222.333ZM346.992 224.333V253H350.992V224.333H346.992ZM348.992 251H337.002V255H348.992V251ZM339.002 253V176.7H335.002V253H339.002ZM337.002 178.7H354.66V174.7H337.002V178.7ZM354.66 185.6H348.992V189.6H354.66V185.6ZM346.992 187.6V213.433H350.992V187.6H346.992ZM348.992 215.433H354.66V211.433H348.992V215.433ZM354.66 215.433C356.983 215.433 359.084 214.778 360.531 213.108L357.509 210.488C357.067 210.998 356.261 211.433 354.66 211.433V215.433ZM360.482 213.163C362.026 211.508 362.546 209.012 362.546 206.239H358.546C358.546 208.698 358.048 209.908 357.558 210.433L360.482 213.163ZM362.546 206.239V194.794H358.546V206.239H362.546ZM362.546 194.794C362.546 192.021 362.026 189.525 360.482 187.87L357.558 190.6C358.048 191.125 358.546 192.335 358.546 194.794H362.546ZM360.531 187.925C359.084 186.255 356.983 185.6 354.66 185.6V189.6C356.261 189.6 357.067 190.035 357.509 190.545L360.531 187.925Z" fill="white"/>
<path d="M288.666 28.719V10.981C288.666 8.30233 289.319 6.19533 290.626 4.66C291.965 3.12467 293.925 2.357 296.506 2.357C299.087 2.357 301.047 3.12467 302.386 4.66C303.725 6.19533 304.395 8.30233 304.395 10.981V28.719C304.395 31.3977 303.725 33.5047 302.386 35.04C301.047 36.5753 299.087 37.343 296.506 37.343C293.958 37.343 292.014 36.5753 290.675 35.04C289.336 33.5047 288.666 31.3977 288.666 28.719ZM292.439 10.785V28.915C292.439 32.2143 293.795 33.864 296.506 33.864C299.217 33.864 300.573 32.2143 300.573 28.915V10.785C300.573 7.48567 299.217 5.836 296.506 5.836C293.795 5.836 292.439 7.48567 292.439 10.785ZM327.556 9.413L322.117 36.951H318.442L312.758 9.658V37H309.426V2.7H314.767L320.402 30.091L325.841 2.7H331.182V37H327.556V9.413ZM343.992 2.357C346.573 2.357 348.5 3.12467 349.774 4.66C351.081 6.19533 351.734 8.30233 351.734 10.981V14.068H348.108V10.785C348.108 7.48567 346.769 5.836 344.09 5.836C341.412 5.836 340.072 7.48567 340.072 10.785V28.915C340.072 32.2143 341.412 33.864 344.09 33.864C346.769 33.864 348.108 32.2143 348.108 28.915V24.456H351.734V28.719C351.734 31.3977 351.081 33.5047 349.774 35.04C348.5 36.5753 346.573 37.343 343.992 37.343C341.444 37.343 339.517 36.5753 338.21 35.04C336.936 33.5047 336.299 31.3977 336.299 28.719V10.981C336.299 8.30233 336.936 6.19533 338.21 4.66C339.517 3.12467 341.444 2.357 343.992 2.357ZM369.859 37L362.509 22.104L360.5 25.485V37H356.678V2.7H360.5V19.262L369.614 2.7H373.485L364.812 18.331L373.779 37H369.859Z" fill="white"/>
<path d="M16.3672 190.127H13.749V199H12.498V190.127H9.88672V189.047H16.3672V190.127ZM22.2598 195.657C22.2598 196.828 22.0479 197.701 21.624 198.275C21.2048 198.85 20.61 199.137 19.8398 199.137C19.097 199.137 18.5251 198.856 18.124 198.296V201.844H16.9209V191.604H18.0146L18.0762 192.424C18.4818 191.786 19.0628 191.467 19.8193 191.467C20.6305 191.467 21.2367 191.749 21.6377 192.314C22.0387 192.88 22.2461 193.725 22.2598 194.851V195.657ZM21.0566 194.967C21.0566 194.137 20.929 193.527 20.6738 193.135C20.4186 192.738 20.0085 192.54 19.4434 192.54C18.8646 192.54 18.4248 192.829 18.124 193.408V197.257C18.4202 197.822 18.8646 198.104 19.457 198.104C20.0039 198.104 20.4049 197.909 20.6602 197.517C20.9199 197.12 21.0521 196.516 21.0566 195.705V194.967ZM26.4639 199.137C25.5433 199.137 24.8369 198.863 24.3447 198.316C23.8525 197.765 23.6019 196.958 23.5928 195.896V195.001C23.5928 193.898 23.832 193.035 24.3105 192.41C24.7936 191.781 25.4658 191.467 26.3271 191.467C27.193 191.467 27.8402 191.743 28.2686 192.294C28.6969 192.845 28.9157 193.704 28.9248 194.871V195.664H24.7959V195.835C24.7959 196.628 24.944 197.204 25.2402 197.564C25.541 197.924 25.9717 198.104 26.5322 198.104C26.8877 198.104 27.1999 198.038 27.4688 197.906C27.7422 197.77 27.9974 197.555 28.2344 197.264L28.8633 198.029C28.3392 198.768 27.5394 199.137 26.4639 199.137ZM26.3271 192.506C25.8258 192.506 25.4544 192.679 25.2129 193.025C24.9714 193.367 24.8346 193.9 24.8027 194.625H27.7148V194.461C27.6829 193.759 27.5553 193.258 27.332 192.957C27.1133 192.656 26.7783 192.506 26.3271 192.506ZM35.5762 199H34.373V195.842H31.707V199H30.4902V191.604H31.707V194.81H34.373V191.604H35.5762V199ZM41.3115 199C41.2386 198.84 41.1862 198.572 41.1543 198.193C40.7259 198.822 40.179 199.137 39.5137 199.137C38.8438 199.137 38.3197 198.95 37.9414 198.576C37.5677 198.198 37.3809 197.667 37.3809 196.983C37.3809 196.231 37.6361 195.634 38.1465 195.192C38.6569 194.75 39.3564 194.525 40.2451 194.516H41.1338V193.729C41.1338 193.287 41.0358 192.973 40.8398 192.786C40.6439 192.599 40.3454 192.506 39.9443 192.506C39.5798 192.506 39.2835 192.615 39.0557 192.834C38.8278 193.048 38.7139 193.322 38.7139 193.654H37.5039C37.5039 193.276 37.6156 192.916 37.8389 192.574C38.0622 192.228 38.363 191.957 38.7412 191.761C39.1195 191.565 39.541 191.467 40.0059 191.467C40.7624 191.467 41.3366 191.656 41.7285 192.034C42.125 192.408 42.3278 192.955 42.3369 193.675V197.407C42.3415 197.977 42.4189 198.471 42.5693 198.891V199H41.3115ZM39.6982 198.036C39.9945 198.036 40.277 197.954 40.5459 197.79C40.8148 197.626 41.0107 197.421 41.1338 197.175V195.411H40.4502C39.876 195.42 39.4225 195.55 39.0898 195.801C38.7572 196.047 38.5908 196.393 38.5908 196.84C38.5908 197.259 38.6751 197.564 38.8438 197.756C39.0124 197.943 39.2972 198.036 39.6982 198.036ZM49.2412 195.787H48.5371V199H47.334V195.787H46.6299L45.085 199H43.5674L45.6934 195.145L43.752 191.604H45.208L46.6436 194.666H47.334V191.604H48.5371V194.666H49.2139L50.6699 191.604H52.126L50.1777 195.151L52.3037 199H50.7793L49.2412 195.787ZM55.9951 199.137C55.0745 199.137 54.3682 198.863 53.876 198.316C53.3838 197.765 53.1331 196.958 53.124 195.896V195.001C53.124 193.898 53.3633 193.035 53.8418 192.41C54.3249 191.781 54.9971 191.467 55.8584 191.467C56.7243 191.467 57.3714 191.743 57.7998 192.294C58.2282 192.845 58.4469 193.704 58.4561 194.871V195.664H54.3271V195.835C54.3271 196.628 54.4753 197.204 54.7715 197.564C55.0723 197.924 55.5029 198.104 56.0635 198.104C56.4189 198.104 56.7311 198.038 57 197.906C57.2734 197.77 57.5286 197.555 57.7656 197.264L58.3945 198.029C57.8704 198.768 57.0706 199.137 55.9951 199.137ZM55.8584 192.506C55.3571 192.506 54.9857 192.679 54.7441 193.025C54.5026 193.367 54.3659 193.9 54.334 194.625H57.2461V194.461C57.2142 193.759 57.0866 193.258 56.8633 192.957C56.6445 192.656 56.3096 192.506 55.8584 192.506ZM53.623 189.628C53.623 189.423 53.6846 189.252 53.8076 189.115C53.9352 188.974 54.1221 188.903 54.3682 188.903C54.6143 188.903 54.8011 188.974 54.9287 189.115C55.0563 189.252 55.1201 189.423 55.1201 189.628C55.1201 189.833 55.0563 190.004 54.9287 190.141C54.8011 190.277 54.6143 190.346 54.3682 190.346C54.1221 190.346 53.9352 190.277 53.8076 190.141C53.6846 190.004 53.623 189.833 53.623 189.628ZM56.5625 189.642C56.5625 189.437 56.624 189.263 56.7471 189.122C56.8747 188.981 57.0615 188.91 57.3076 188.91C57.5537 188.91 57.7406 188.981 57.8682 189.122C57.9958 189.263 58.0596 189.437 58.0596 189.642C58.0596 189.847 57.9958 190.018 57.8682 190.154C57.7406 190.291 57.5537 190.359 57.3076 190.359C57.0615 190.359 56.8747 190.291 56.7471 190.154C56.624 190.018 56.5625 189.847 56.5625 189.642ZM65.2578 195.657C65.2578 196.828 65.0459 197.701 64.6221 198.275C64.2028 198.85 63.6081 199.137 62.8379 199.137C62.0951 199.137 61.5231 198.856 61.1221 198.296V201.844H59.9189V191.604H61.0127L61.0742 192.424C61.4798 191.786 62.0609 191.467 62.8174 191.467C63.6286 191.467 64.2347 191.749 64.6357 192.314C65.0368 192.88 65.2441 193.725 65.2578 194.851V195.657ZM64.0547 194.967C64.0547 194.137 63.9271 193.527 63.6719 193.135C63.4167 192.738 63.0065 192.54 62.4414 192.54C61.8626 192.54 61.4229 192.829 61.1221 193.408V197.257C61.4183 197.822 61.8626 198.104 62.4551 198.104C63.002 198.104 63.403 197.909 63.6582 197.517C63.918 197.12 64.0501 196.516 64.0547 195.705V194.967ZM72.0117 199H70.8086V195.842H68.1426V199H66.9258V191.604H68.1426V194.81H70.8086V191.604H72.0117V199ZM75.252 194.153H76.7764C77.4827 194.158 78.0456 194.374 78.4648 194.803C78.8841 195.231 79.0938 195.814 79.0938 196.553C79.0938 197.291 78.8818 197.883 78.458 198.33C78.0342 198.772 77.4736 198.995 76.7764 199H74.0488V191.604H75.252V194.153ZM81.3496 199H80.1396V191.604H81.3496V199ZM75.252 195.186V197.968H76.7559C77.1113 197.968 77.387 197.847 77.583 197.605C77.7835 197.364 77.8838 197.029 77.8838 196.601C77.8838 196.181 77.7858 195.842 77.5898 195.582C77.3939 195.322 77.125 195.19 76.7832 195.186H75.252ZM87.4541 191.604H88.6572V199H87.4541V193.606L84.7744 199H83.5645V191.604H84.7744V197.004L87.4541 191.604ZM88.165 188.91C88.165 189.462 87.9759 189.906 87.5977 190.243C87.224 190.576 86.7318 190.742 86.1211 190.742C85.5104 190.742 85.016 190.574 84.6377 190.236C84.2594 189.899 84.0703 189.457 84.0703 188.91H85.1025C85.1025 189.229 85.1891 189.48 85.3623 189.662C85.5355 189.84 85.7884 189.929 86.1211 189.929C86.4401 189.929 86.6885 189.84 86.8662 189.662C87.0485 189.484 87.1396 189.234 87.1396 188.91H88.165ZM98.3438 193.62C98.3438 193.953 98.2594 194.258 98.0908 194.536C97.9222 194.814 97.6829 195.035 97.373 195.199C98.0977 195.495 98.46 196.07 98.46 196.922C98.46 197.61 98.2344 198.15 97.7832 198.542C97.3366 198.934 96.7464 199.13 96.0127 199.13C95.2881 199.13 94.6911 198.923 94.2217 198.508C93.7568 198.089 93.5244 197.523 93.5244 196.812H94.7207C94.7207 197.177 94.8438 197.487 95.0898 197.742C95.3359 197.997 95.6436 198.125 96.0127 198.125C96.3864 198.125 96.6849 198.013 96.9082 197.79C97.1361 197.567 97.25 197.277 97.25 196.922C97.25 196.507 97.1566 196.211 96.9697 196.033C96.7874 195.851 96.498 195.76 96.1016 195.76H94.9941V194.693H96.1836C96.8216 194.671 97.1406 194.315 97.1406 193.627C97.1406 193.281 97.0404 193.007 96.8398 192.807C96.6439 192.602 96.3704 192.499 96.0195 192.499C95.6777 192.499 95.3906 192.613 95.1582 192.841C94.9303 193.069 94.8164 193.344 94.8164 193.668H93.6201C93.6201 193.025 93.848 192.499 94.3037 192.089C94.7594 191.679 95.3314 191.474 96.0195 191.474C96.7533 191.474 97.3229 191.66 97.7285 192.034C98.1387 192.408 98.3438 192.937 98.3438 193.62ZM103.86 199C103.787 198.84 103.735 198.572 103.703 198.193C103.275 198.822 102.728 199.137 102.062 199.137C101.393 199.137 100.868 198.95 100.49 198.576C100.117 198.198 99.9297 197.667 99.9297 196.983C99.9297 196.231 100.185 195.634 100.695 195.192C101.206 194.75 101.905 194.525 102.794 194.516H103.683V193.729C103.683 193.287 103.585 192.973 103.389 192.786C103.193 192.599 102.894 192.506 102.493 192.506C102.129 192.506 101.832 192.615 101.604 192.834C101.377 193.048 101.263 193.322 101.263 193.654H100.053C100.053 193.276 100.164 192.916 100.388 192.574C100.611 192.228 100.912 191.957 101.29 191.761C101.668 191.565 102.09 191.467 102.555 191.467C103.311 191.467 103.885 191.656 104.277 192.034C104.674 192.408 104.877 192.955 104.886 193.675V197.407C104.89 197.977 104.968 198.471 105.118 198.891V199H103.86ZM102.247 198.036C102.543 198.036 102.826 197.954 103.095 197.79C103.364 197.626 103.56 197.421 103.683 197.175V195.411H102.999C102.425 195.42 101.971 195.55 101.639 195.801C101.306 196.047 101.14 196.393 101.14 196.84C101.14 197.259 101.224 197.564 101.393 197.756C101.561 197.943 101.846 198.036 102.247 198.036ZM111.981 191.604V199H110.771V192.649H108.823L108.707 195.158C108.643 196.548 108.456 197.535 108.146 198.118C107.837 198.697 107.34 198.991 106.656 199H106.253V197.886L106.561 197.858C106.898 197.813 107.135 197.587 107.271 197.182C107.413 196.771 107.506 195.967 107.552 194.769L107.668 191.604H111.981ZM6.89941 211.127H2.98242V220H1.72461V210.047H6.89941V211.127ZM12.2656 216.657C12.2656 217.828 12.0537 218.701 11.6299 219.275C11.2106 219.85 10.6159 220.137 9.8457 220.137C9.10286 220.137 8.53092 219.856 8.12988 219.296V222.844H6.92676V212.604H8.02051L8.08203 213.424C8.48763 212.786 9.06868 212.467 9.8252 212.467C10.6364 212.467 11.2425 212.749 11.6436 213.314C12.0446 213.88 12.252 214.725 12.2656 215.851V216.657ZM11.0625 215.967C11.0625 215.137 10.9349 214.527 10.6797 214.135C10.4245 213.738 10.0143 213.54 9.44922 213.54C8.87044 213.54 8.43066 213.829 8.12988 214.408V218.257C8.42611 218.822 8.87044 219.104 9.46289 219.104C10.0098 219.104 10.4108 218.909 10.666 218.517C10.9258 218.12 11.0579 217.516 11.0625 216.705V215.967ZM15.7656 217.99L17.1123 212.604H18.3975L15.9775 221.046C15.7952 221.679 15.5378 222.16 15.2051 222.488C14.8724 222.821 14.4941 222.987 14.0703 222.987C13.9062 222.987 13.6966 222.951 13.4414 222.878V221.853L13.708 221.88C14.0589 221.88 14.3324 221.796 14.5283 221.627C14.7288 221.463 14.8906 221.176 15.0137 220.766L15.2529 219.938L13.0791 212.604H14.3984L15.7656 217.99ZM24.7822 220H23.5791V213.649H20.9062V220H19.6895V212.604H24.7822V220ZM31.9189 220H30.7158V213.649H28.043V220H26.8262V212.604H31.9189V220ZM33.6006 215.96C33.6006 214.884 33.8604 214.035 34.3799 213.41C34.904 212.781 35.5944 212.467 36.4512 212.467C37.3079 212.467 37.9961 212.772 38.5156 213.383C39.0397 213.993 39.3086 214.825 39.3223 215.878V216.657C39.3223 217.728 39.0625 218.576 38.543 219.2C38.0234 219.825 37.3307 220.137 36.4648 220.137C35.6081 220.137 34.9199 219.834 34.4004 219.228C33.8854 218.621 33.6188 217.801 33.6006 216.767V215.96ZM34.8105 216.657C34.8105 217.418 34.9587 218.018 35.2549 218.455C35.5557 218.888 35.959 219.104 36.4648 219.104C37.5312 219.104 38.0804 218.334 38.1123 216.794V215.96C38.1123 215.203 37.9619 214.606 37.6611 214.169C37.3604 213.727 36.957 213.506 36.4512 213.506C35.9544 213.506 35.5557 213.727 35.2549 214.169C34.9587 214.606 34.8105 215.201 34.8105 215.953V216.657ZM40.9902 220V212.604H43.4717C44.3193 212.604 44.9665 212.777 45.4131 213.123C45.8597 213.469 46.083 213.973 46.083 214.634C46.083 214.976 45.9941 215.283 45.8164 215.557C45.6387 215.83 45.3789 216.04 45.0371 216.186C45.4154 216.286 45.7184 216.489 45.9463 216.794C46.1787 217.099 46.2949 217.468 46.2949 217.901C46.2949 218.585 46.0807 219.107 45.6523 219.467C45.2285 219.822 44.627 220 43.8477 220H40.9902ZM42.1934 216.753V218.981H43.8613C44.6771 218.981 45.085 218.608 45.085 217.86C45.085 217.122 44.6725 216.753 43.8477 216.753H42.1934ZM42.1934 215.741H43.458C44.4014 215.741 44.873 215.395 44.873 214.702C44.873 214.005 44.4287 213.647 43.54 213.629H42.1934V215.741ZM49.248 215.153H50.7725C51.4788 215.158 52.0417 215.374 52.4609 215.803C52.8802 216.231 53.0898 216.814 53.0898 217.553C53.0898 218.291 52.8779 218.883 52.4541 219.33C52.0303 219.772 51.4697 219.995 50.7725 220H48.0449V212.604H49.248V215.153ZM55.3457 220H54.1357V212.604H55.3457V220ZM49.248 216.186V218.968H50.752C51.1074 218.968 51.3831 218.847 51.5791 218.605C51.7796 218.364 51.8799 218.029 51.8799 217.601C51.8799 217.181 51.7819 216.842 51.5859 216.582C51.39 216.322 51.1211 216.19 50.7793 216.186H49.248ZM60.0967 220.137C59.1761 220.137 58.4697 219.863 57.9775 219.316C57.4854 218.765 57.2347 217.958 57.2256 216.896V216.001C57.2256 214.898 57.4648 214.035 57.9434 213.41C58.4264 212.781 59.0986 212.467 59.96 212.467C60.8258 212.467 61.473 212.743 61.9014 213.294C62.3298 213.845 62.5485 214.704 62.5576 215.871V216.664H58.4287V216.835C58.4287 217.628 58.5768 218.204 58.873 218.564C59.1738 218.924 59.6045 219.104 60.165 219.104C60.5205 219.104 60.8327 219.038 61.1016 218.906C61.375 218.77 61.6302 218.555 61.8672 218.264L62.4961 219.029C61.972 219.768 61.1722 220.137 60.0967 220.137ZM59.96 213.506C59.4587 213.506 59.0872 213.679 58.8457 214.025C58.6042 214.367 58.4674 214.9 58.4355 215.625H61.3477V215.461C61.3158 214.759 61.1882 214.258 60.9648 213.957C60.7461 213.656 60.4111 213.506 59.96 213.506ZM71.7656 214.62C71.7656 214.953 71.6813 215.258 71.5127 215.536C71.3441 215.814 71.1048 216.035 70.7949 216.199C71.5195 216.495 71.8818 217.07 71.8818 217.922C71.8818 218.61 71.6562 219.15 71.2051 219.542C70.7585 219.934 70.1683 220.13 69.4346 220.13C68.71 220.13 68.113 219.923 67.6436 219.508C67.1787 219.089 66.9463 218.523 66.9463 217.812H68.1426C68.1426 218.177 68.2656 218.487 68.5117 218.742C68.7578 218.997 69.0654 219.125 69.4346 219.125C69.8083 219.125 70.1068 219.013 70.3301 218.79C70.5579 218.567 70.6719 218.277 70.6719 217.922C70.6719 217.507 70.5785 217.211 70.3916 217.033C70.2093 216.851 69.9199 216.76 69.5234 216.76H68.416V215.693H69.6055C70.2435 215.671 70.5625 215.315 70.5625 214.627C70.5625 214.281 70.4622 214.007 70.2617 213.807C70.0658 213.602 69.7923 213.499 69.4414 213.499C69.0996 213.499 68.8125 213.613 68.5801 213.841C68.3522 214.069 68.2383 214.344 68.2383 214.668H67.042C67.042 214.025 67.2699 213.499 67.7256 213.089C68.1813 212.679 68.7533 212.474 69.4414 212.474C70.1751 212.474 70.7448 212.66 71.1504 213.034C71.5605 213.408 71.7656 213.937 71.7656 214.62ZM77.2822 220C77.2093 219.84 77.1569 219.572 77.125 219.193C76.6966 219.822 76.1497 220.137 75.4844 220.137C74.8145 220.137 74.2904 219.95 73.9121 219.576C73.5384 219.198 73.3516 218.667 73.3516 217.983C73.3516 217.231 73.6068 216.634 74.1172 216.192C74.6276 215.75 75.3271 215.525 76.2158 215.516H77.1045V214.729C77.1045 214.287 77.0065 213.973 76.8105 213.786C76.6146 213.599 76.3161 213.506 75.915 213.506C75.5505 213.506 75.2542 213.615 75.0264 213.834C74.7985 214.048 74.6846 214.322 74.6846 214.654H73.4746C73.4746 214.276 73.5863 213.916 73.8096 213.574C74.0329 213.228 74.3337 212.957 74.7119 212.761C75.0902 212.565 75.5117 212.467 75.9766 212.467C76.7331 212.467 77.3073 212.656 77.6992 213.034C78.0957 213.408 78.2985 213.955 78.3076 214.675V218.407C78.3122 218.977 78.3896 219.471 78.54 219.891V220H77.2822ZM75.6689 219.036C75.9652 219.036 76.2477 218.954 76.5166 218.79C76.7855 218.626 76.9814 218.421 77.1045 218.175V216.411H76.4209C75.8467 216.42 75.3932 216.55 75.0605 216.801C74.7279 217.047 74.5615 217.393 74.5615 217.84C74.5615 218.259 74.6458 218.564 74.8145 218.756C74.9831 218.943 75.2679 219.036 75.6689 219.036ZM85.3828 220H84.1797V216.842H81.5137V220H80.2969V212.604H81.5137V215.81H84.1797V212.604H85.3828V220ZM92.1436 212.604V220H90.9336V217.122H89.5049L88.0146 220H86.7158L88.3154 216.91C87.9144 216.737 87.609 216.47 87.3994 216.11C87.1898 215.75 87.085 215.333 87.085 214.859C87.085 214.18 87.3037 213.636 87.7412 213.226C88.1787 212.811 88.7666 212.604 89.5049 212.604H92.1436ZM88.2949 214.873C88.2949 215.238 88.3929 215.532 88.5889 215.755C88.7848 215.974 89.0492 216.083 89.3818 216.083H90.9336V213.629H89.4912C89.1312 213.629 88.8418 213.745 88.623 213.978C88.4043 214.205 88.2949 214.504 88.2949 214.873ZM98.7402 213.629H96.7236V220H95.5205V213.629H93.5312V212.604H98.7402V213.629ZM104.011 212.604H105.214V220H104.011V214.606L101.331 220H100.121V212.604H101.331V218.004L104.011 212.604ZM111.981 212.604V220H110.771V217.122H109.343L107.853 220H106.554L108.153 216.91C107.752 216.737 107.447 216.47 107.237 216.11C107.028 215.75 106.923 215.333 106.923 214.859C106.923 214.18 107.142 213.636 107.579 213.226C108.017 212.811 108.604 212.604 109.343 212.604H111.981ZM108.133 214.873C108.133 215.238 108.231 215.532 108.427 215.755C108.623 215.974 108.887 216.083 109.22 216.083H110.771V213.629H109.329C108.969 213.629 108.68 213.745 108.461 213.978C108.242 214.205 108.133 214.504 108.133 214.873ZM42.7334 236.529H41.79V241H40.5391V231.047H41.79V235.436H42.5557L45.3584 231.047H46.917L43.7588 235.859L47.1494 241H45.6182L42.7334 236.529ZM51.9619 241C51.889 240.84 51.8366 240.572 51.8047 240.193C51.3763 240.822 50.8294 241.137 50.1641 241.137C49.4941 241.137 48.9701 240.95 48.5918 240.576C48.2181 240.198 48.0312 239.667 48.0312 238.983C48.0312 238.231 48.2865 237.634 48.7969 237.192C49.3073 236.75 50.0068 236.525 50.8955 236.516H51.7842V235.729C51.7842 235.287 51.6862 234.973 51.4902 234.786C51.2943 234.599 50.9958 234.506 50.5947 234.506C50.2301 234.506 49.9339 234.615 49.7061 234.834C49.4782 235.048 49.3643 235.322 49.3643 235.654H48.1543C48.1543 235.276 48.266 234.916 48.4893 234.574C48.7126 234.228 49.0133 233.957 49.3916 233.761C49.7699 233.565 50.1914 233.467 50.6562 233.467C51.4128 233.467 51.987 233.656 52.3789 234.034C52.7754 234.408 52.9782 234.955 52.9873 235.675V239.407C52.9919 239.977 53.0693 240.471 53.2197 240.891V241H51.9619ZM50.3486 240.036C50.6449 240.036 50.9274 239.954 51.1963 239.79C51.4652 239.626 51.6611 239.421 51.7842 239.175V237.411H51.1006C50.5264 237.42 50.0729 237.55 49.7402 237.801C49.4076 238.047 49.2412 238.393 49.2412 238.84C49.2412 239.259 49.3255 239.564 49.4941 239.756C49.6628 239.943 49.9476 240.036 50.3486 240.036ZM60.2129 237.657C60.2129 238.828 60.001 239.701 59.5771 240.275C59.1579 240.85 58.5632 241.137 57.793 241.137C57.0501 241.137 56.4782 240.856 56.0771 240.296V243.844H54.874V233.604H55.9678L56.0293 234.424C56.4349 233.786 57.016 233.467 57.7725 233.467C58.5837 233.467 59.1898 233.749 59.5908 234.314C59.9919 234.88 60.1992 235.725 60.2129 236.851V237.657ZM59.0098 236.967C59.0098 236.137 58.8822 235.527 58.627 235.135C58.3717 234.738 57.9616 234.54 57.3965 234.54C56.8177 234.54 56.3779 234.829 56.0771 235.408V239.257C56.3734 239.822 56.8177 240.104 57.4102 240.104C57.957 240.104 58.3581 239.909 58.6133 239.517C58.873 239.12 59.0052 238.516 59.0098 237.705V236.967ZM61.6348 239.968L61.9971 239.448C62.389 238.847 62.6146 237.96 62.6738 236.789L62.7764 233.604H66.9053V239.968H67.7666V243.174H66.5566V241H62.3525V243.174H61.1357L61.1426 239.968H61.6348ZM62.9814 239.968H65.7021V234.772H63.9521L63.8906 236.577C63.8268 238.017 63.5238 239.147 62.9814 239.968ZM73.1533 233.604H74.3564V241H73.1533V235.606L70.4736 241H69.2637V233.604H70.4736V239.004L73.1533 233.604ZM76.0381 236.96C76.0381 235.884 76.2979 235.035 76.8174 234.41C77.3415 233.781 78.0319 233.467 78.8887 233.467C79.7454 233.467 80.4336 233.772 80.9531 234.383C81.4772 234.993 81.7461 235.825 81.7598 236.878V237.657C81.7598 238.728 81.5 239.576 80.9805 240.2C80.4609 240.825 79.7682 241.137 78.9023 241.137C78.0456 241.137 77.3574 240.834 76.8379 240.228C76.3229 239.621 76.0563 238.801 76.0381 237.767V236.96ZM77.248 237.657C77.248 238.418 77.3962 239.018 77.6924 239.455C77.9932 239.888 78.3965 240.104 78.9023 240.104C79.9688 240.104 80.5179 239.334 80.5498 237.794V236.96C80.5498 236.203 80.3994 235.606 80.0986 235.169C79.7979 234.727 79.3945 234.506 78.8887 234.506C78.3919 234.506 77.9932 234.727 77.6924 235.169C77.3962 235.606 77.248 236.201 77.248 236.953V237.657ZM85.5605 237.288H82.7373V236.256H85.5605V237.288ZM91.3301 235.62C91.3301 235.953 91.2458 236.258 91.0771 236.536C90.9085 236.814 90.6693 237.035 90.3594 237.199C91.084 237.495 91.4463 238.07 91.4463 238.922C91.4463 239.61 91.2207 240.15 90.7695 240.542C90.3229 240.934 89.7327 241.13 88.999 241.13C88.2744 241.13 87.6774 240.923 87.208 240.508C86.7432 240.089 86.5107 239.523 86.5107 238.812H87.707C87.707 239.177 87.8301 239.487 88.0762 239.742C88.3223 239.997 88.6299 240.125 88.999 240.125C89.3727 240.125 89.6712 240.013 89.8945 239.79C90.1224 239.567 90.2363 239.277 90.2363 238.922C90.2363 238.507 90.1429 238.211 89.9561 238.033C89.7738 237.851 89.4844 237.76 89.0879 237.76H87.9805V236.693H89.1699C89.8079 236.671 90.127 236.315 90.127 235.627C90.127 235.281 90.0267 235.007 89.8262 234.807C89.6302 234.602 89.3568 234.499 89.0059 234.499C88.6641 234.499 88.377 234.613 88.1445 234.841C87.9167 235.069 87.8027 235.344 87.8027 235.668H86.6064C86.6064 235.025 86.8343 234.499 87.29 234.089C87.7458 233.679 88.3177 233.474 89.0059 233.474C89.7396 233.474 90.3092 233.66 90.7148 234.034C91.125 234.408 91.3301 234.937 91.3301 235.62ZM92.7861 236.96C92.7861 235.884 93.0459 235.035 93.5654 234.41C94.0895 233.781 94.7799 233.467 95.6367 233.467C96.4935 233.467 97.1816 233.772 97.7012 234.383C98.2253 234.993 98.4941 235.825 98.5078 236.878V237.657C98.5078 238.728 98.248 239.576 97.7285 240.2C97.209 240.825 96.5163 241.137 95.6504 241.137C94.7936 241.137 94.1055 240.834 93.5859 240.228C93.071 239.621 92.8044 238.801 92.7861 237.767V236.96ZM93.9961 237.657C93.9961 238.418 94.1442 239.018 94.4404 239.455C94.7412 239.888 95.1445 240.104 95.6504 240.104C96.7168 240.104 97.266 239.334 97.2979 237.794V236.96C97.2979 236.203 97.1475 235.606 96.8467 235.169C96.5459 234.727 96.1426 234.506 95.6367 234.506C95.14 234.506 94.7412 234.727 94.4404 235.169C94.1442 235.606 93.9961 236.201 93.9961 236.953V237.657ZM105.262 241H104.059V237.842H101.393V241H100.176V233.604H101.393V236.81H104.059V233.604H105.262V241ZM110.997 241C110.924 240.84 110.872 240.572 110.84 240.193C110.411 240.822 109.865 241.137 109.199 241.137C108.529 241.137 108.005 240.95 107.627 240.576C107.253 240.198 107.066 239.667 107.066 238.983C107.066 238.231 107.322 237.634 107.832 237.192C108.342 236.75 109.042 236.525 109.931 236.516H110.819V235.729C110.819 235.287 110.721 234.973 110.525 234.786C110.329 234.599 110.031 234.506 109.63 234.506C109.265 234.506 108.969 234.615 108.741 234.834C108.513 235.048 108.399 235.322 108.399 235.654H107.189C107.189 235.276 107.301 234.916 107.524 234.574C107.748 234.228 108.049 233.957 108.427 233.761C108.805 233.565 109.227 233.467 109.691 233.467C110.448 233.467 111.022 233.656 111.414 234.034C111.811 234.408 112.013 234.955 112.022 235.675V239.407C112.027 239.977 112.104 240.471 112.255 240.891V241H110.997ZM109.384 240.036C109.68 240.036 109.963 239.954 110.231 239.79C110.5 239.626 110.696 239.421 110.819 239.175V237.411H110.136C109.562 237.42 109.108 237.55 108.775 237.801C108.443 238.047 108.276 238.393 108.276 238.84C108.276 239.259 108.361 239.564 108.529 239.756C108.698 239.943 108.983 240.036 109.384 240.036Z" fill="white"/>
</svg>
