<svg width="324" height="201" viewBox="0 0 324 201" fill="none" xmlns="http://www.w3.org/2000/svg">
<path d="M109.785 106V99.206H106.259C96.8561 99.206 92.1548 94.2467 92.1548 84.328V67.902C92.1548 57.9833 96.8561 53.024 106.259 53.024H109.785V45.8H119.073V53.024H122.599C132.001 53.024 136.703 57.9833 136.703 67.902V84.328C136.703 94.2467 132.001 99.206 122.599 99.206H119.073V106H109.785ZM122.599 61.366H119.073V90.95H122.599C125.752 90.95 127.329 88.9433 127.329 84.93V67.3C127.329 63.344 125.752 61.366 122.599 61.366ZM109.785 90.95V61.366H106.259C103.105 61.366 101.529 63.344 101.529 67.3V84.93C101.529 88.9433 103.105 90.95 106.259 90.95H109.785ZM163.277 78.394L155.365 106H145.647V45.8H154.075V83.898L157.515 70.654L165.255 45.8H175.661V106H167.147V63.602L163.277 78.394ZM182.177 54.4V45.8H211.417V54.4H201.527V106H192.067V54.4H182.177ZM227.623 80.2V106H218.163V45.8H227.623V71.6H238.373V45.8H248.005V106H238.373V80.2H227.623ZM266.904 54.4V71.17H279.89V79.77H266.904V97.4H283.244V106H257.444V45.8H283.244V54.4H266.904ZM310.176 83.554H319.12V91.552C319.12 96.4253 317.916 100.181 315.508 102.818C313.1 105.398 309.603 106.688 305.016 106.688C300.43 106.688 296.932 105.398 294.524 102.818C292.116 100.181 290.912 96.4253 290.912 91.552V60.248C290.912 55.3747 292.116 51.648 294.524 49.068C296.932 46.4307 300.43 45.112 305.016 45.112C309.603 45.112 313.1 46.4307 315.508 49.068C317.916 51.648 319.12 55.3747 319.12 60.248V66.096H310.176V59.646C310.176 55.69 308.542 53.712 305.274 53.712C302.006 53.712 300.372 55.69 300.372 59.646V92.154C300.372 96.0527 302.006 98.002 305.274 98.002C308.542 98.002 310.176 96.0527 310.176 92.154V83.554ZM143.968 192V131.8H153.428V183.4H164.178V131.8H173.81V183.572H177.938V200.084H168.736V192H143.968ZM195.144 140.4V157.17H208.13V165.77H195.144V183.4H211.484V192H185.684V131.8H211.484V140.4H195.144ZM229.387 166.2V192H219.927V131.8H229.387V157.6H240.137V131.8H249.769V192H240.137V166.2H229.387ZM256.456 140.4V131.8H285.696V140.4H275.806V192H266.346V140.4H256.456ZM306.374 131.8C315.777 131.8 320.478 136.759 320.478 146.678V154.504C320.478 164.423 315.777 169.382 306.374 169.382H301.902V192H292.442V131.8H306.374ZM306.374 140.4H301.902V160.782H306.374C307.922 160.782 309.069 160.352 309.814 159.492C310.617 158.632 311.018 157.17 311.018 155.106V146.076C311.018 144.012 310.617 142.55 309.814 141.69C309.069 140.83 307.922 140.4 306.374 140.4Z" fill="white"/>
<path d="M109.785 106H107.785V108H109.785V106ZM109.785 99.206H111.785V97.206H109.785V99.206ZM109.785 53.024V55.024H111.785V53.024H109.785ZM109.785 45.8V43.8H107.785V45.8H109.785ZM119.073 45.8H121.073V43.8H119.073V45.8ZM119.073 53.024H117.073V55.024H119.073V53.024ZM119.073 99.206V97.206H117.073V99.206H119.073ZM119.073 106V108H121.073V106H119.073ZM119.073 61.366V59.366H117.073V61.366H119.073ZM119.073 90.95H117.073V92.95H119.073V90.95ZM109.785 90.95V92.95H111.785V90.95H109.785ZM109.785 61.366H111.785V59.366H109.785V61.366ZM111.785 106V99.206H107.785V106H111.785ZM109.785 97.206H106.259V101.206H109.785V97.206ZM106.259 97.206C101.894 97.206 98.9804 96.0601 97.1322 94.1105C95.2651 92.1409 94.1548 89.0049 94.1548 84.328H90.1548C90.1548 89.5698 91.3951 93.8727 94.2293 96.8625C97.0825 99.8722 101.221 101.206 106.259 101.206V97.206ZM94.1548 84.328V67.902H90.1548V84.328H94.1548ZM94.1548 67.902C94.1548 63.2251 95.2651 60.0891 97.1322 58.1194C98.9804 56.1699 101.894 55.024 106.259 55.024V51.024C101.221 51.024 97.0825 52.3578 94.2293 55.3675C91.3951 58.3573 90.1548 62.6602 90.1548 67.902H94.1548ZM106.259 55.024H109.785V51.024H106.259V55.024ZM111.785 53.024V45.8H107.785V53.024H111.785ZM109.785 47.8H119.073V43.8H109.785V47.8ZM117.073 45.8V53.024H121.073V45.8H117.073ZM119.073 55.024H122.599V51.024H119.073V55.024ZM122.599 55.024C126.964 55.024 129.877 56.1699 131.725 58.1194C133.592 60.0891 134.703 63.2251 134.703 67.902H138.703C138.703 62.6602 137.462 58.3573 134.628 55.3675C131.775 52.3578 127.636 51.024 122.599 51.024V55.024ZM134.703 67.902V84.328H138.703V67.902H134.703ZM134.703 84.328C134.703 89.0049 133.592 92.1409 131.725 94.1105C129.877 96.0601 126.964 97.206 122.599 97.206V101.206C127.636 101.206 131.775 99.8722 134.628 96.8625C137.462 93.8727 138.703 89.5698 138.703 84.328H134.703ZM122.599 97.206H119.073V101.206H122.599V97.206ZM117.073 99.206V106H121.073V99.206H117.073ZM119.073 104H109.785V108H119.073V104ZM122.599 59.366H119.073V63.366H122.599V59.366ZM117.073 61.366V90.95H121.073V61.366H117.073ZM119.073 92.95H122.599V88.95H119.073V92.95ZM122.599 92.95C124.629 92.95 126.463 92.2796 127.719 90.6806C128.903 89.1736 129.329 87.1441 129.329 84.93H125.329C125.329 86.7292 124.966 87.7098 124.574 88.2094C124.253 88.6171 123.721 88.95 122.599 88.95V92.95ZM129.329 84.93V67.3H125.329V84.93H129.329ZM129.329 67.3C129.329 65.1096 128.901 63.0969 127.71 61.6029C126.45 60.0223 124.619 59.366 122.599 59.366V63.366C123.731 63.366 124.266 63.6987 124.582 64.0961C124.968 64.5801 125.329 65.5344 125.329 67.3H129.329ZM111.785 90.95V61.366H107.785V90.95H111.785ZM109.785 59.366H106.259V63.366H109.785V59.366ZM106.259 59.366C104.238 59.366 102.407 60.0223 101.147 61.6029C99.9564 63.0969 99.5288 65.1096 99.5288 67.3H103.529C103.529 65.5344 103.889 64.5801 104.275 64.0961C104.592 63.6987 105.126 63.366 106.259 63.366V59.366ZM99.5288 67.3V84.93H103.529V67.3H99.5288ZM99.5288 84.93C99.5288 87.1441 99.9545 89.1736 101.139 90.6806C102.395 92.2796 104.228 92.95 106.259 92.95V88.95C105.136 88.95 104.604 88.6171 104.284 88.2094C103.891 87.7098 103.529 86.7292 103.529 84.93H99.5288ZM106.259 92.95H109.785V88.95H106.259V92.95ZM163.277 78.394L165.2 78.945L165.206 78.9227L165.212 78.9002L163.277 78.394ZM155.365 106V108H156.873L157.288 106.551L155.365 106ZM145.647 106H143.647V108H145.647V106ZM145.647 45.8V43.8H143.647V45.8H145.647ZM154.075 45.8H156.075V43.8H154.075V45.8ZM154.075 83.898H152.075L156.011 84.4008L154.075 83.898ZM157.515 70.654L155.606 70.0593L155.592 70.105L155.58 70.1512L157.515 70.654ZM165.255 45.8V43.8H163.784L163.346 45.2053L165.255 45.8ZM175.661 45.8H177.661V43.8H175.661V45.8ZM175.661 106V108H177.661V106H175.661ZM167.147 106H165.147V108H167.147V106ZM167.147 63.602H169.147L165.213 63.0958L167.147 63.602ZM161.355 77.843L153.443 105.449L157.288 106.551L165.2 78.945L161.355 77.843ZM155.365 104H145.647V108H155.365V104ZM147.647 106V45.8H143.647V106H147.647ZM145.647 47.8H154.075V43.8H145.647V47.8ZM152.075 45.8V83.898H156.075V45.8H152.075ZM156.011 84.4008L159.451 71.1568L155.58 70.1512L152.14 83.3952L156.011 84.4008ZM159.425 71.2487L167.165 46.3947L163.346 45.2053L155.606 70.0593L159.425 71.2487ZM165.255 47.8H175.661V43.8H165.255V47.8ZM173.661 45.8V106H177.661V45.8H173.661ZM175.661 104H167.147V108H175.661V104ZM169.147 106V63.602H165.147V106H169.147ZM165.213 63.0958L161.343 77.8878L165.212 78.9002L169.082 64.1082L165.213 63.0958ZM182.177 54.4H180.177V56.4H182.177V54.4ZM182.177 45.8V43.8H180.177V45.8H182.177ZM211.417 45.8H213.417V43.8H211.417V45.8ZM211.417 54.4V56.4H213.417V54.4H211.417ZM201.527 54.4V52.4H199.527V54.4H201.527ZM201.527 106V108H203.527V106H201.527ZM192.067 106H190.067V108H192.067V106ZM192.067 54.4H194.067V52.4H192.067V54.4ZM184.177 54.4V45.8H180.177V54.4H184.177ZM182.177 47.8H211.417V43.8H182.177V47.8ZM209.417 45.8V54.4H213.417V45.8H209.417ZM211.417 52.4H201.527V56.4H211.417V52.4ZM199.527 54.4V106H203.527V54.4H199.527ZM201.527 104H192.067V108H201.527V104ZM194.067 106V54.4H190.067V106H194.067ZM192.067 52.4H182.177V56.4H192.067V52.4ZM227.623 80.2V78.2H225.623V80.2H227.623ZM227.623 106V108H229.623V106H227.623ZM218.163 106H216.163V108H218.163V106ZM218.163 45.8V43.8H216.163V45.8H218.163ZM227.623 45.8H229.623V43.8H227.623V45.8ZM227.623 71.6H225.623V73.6H227.623V71.6ZM238.373 71.6V73.6H240.373V71.6H238.373ZM238.373 45.8V43.8H236.373V45.8H238.373ZM248.005 45.8H250.005V43.8H248.005V45.8ZM248.005 106V108H250.005V106H248.005ZM238.373 106H236.373V108H238.373V106ZM238.373 80.2H240.373V78.2H238.373V80.2ZM225.623 80.2V106H229.623V80.2H225.623ZM227.623 104H218.163V108H227.623V104ZM220.163 106V45.8H216.163V106H220.163ZM218.163 47.8H227.623V43.8H218.163V47.8ZM225.623 45.8V71.6H229.623V45.8H225.623ZM227.623 73.6H238.373V69.6H227.623V73.6ZM240.373 71.6V45.8H236.373V71.6H240.373ZM238.373 47.8H248.005V43.8H238.373V47.8ZM246.005 45.8V106H250.005V45.8H246.005ZM248.005 104H238.373V108H248.005V104ZM240.373 106V80.2H236.373V106H240.373ZM238.373 78.2H227.623V82.2H238.373V78.2ZM266.904 54.4V52.4H264.904V54.4H266.904ZM266.904 71.17H264.904V73.17H266.904V71.17ZM279.89 71.17H281.89V69.17H279.89V71.17ZM279.89 79.77V81.77H281.89V79.77H279.89ZM266.904 79.77V77.77H264.904V79.77H266.904ZM266.904 97.4H264.904V99.4H266.904V97.4ZM283.244 97.4H285.244V95.4H283.244V97.4ZM283.244 106V108H285.244V106H283.244ZM257.444 106H255.444V108H257.444V106ZM257.444 45.8V43.8H255.444V45.8H257.444ZM283.244 45.8H285.244V43.8H283.244V45.8ZM283.244 54.4V56.4H285.244V54.4H283.244ZM264.904 54.4V71.17H268.904V54.4H264.904ZM266.904 73.17H279.89V69.17H266.904V73.17ZM277.89 71.17V79.77H281.89V71.17H277.89ZM279.89 77.77H266.904V81.77H279.89V77.77ZM264.904 79.77V97.4H268.904V79.77H264.904ZM266.904 99.4H283.244V95.4H266.904V99.4ZM281.244 97.4V106H285.244V97.4H281.244ZM283.244 104H257.444V108H283.244V104ZM259.444 106V45.8H255.444V106H259.444ZM257.444 47.8H283.244V43.8H257.444V47.8ZM281.244 45.8V54.4H285.244V45.8H281.244ZM283.244 52.4H266.904V56.4H283.244V52.4ZM310.176 83.554V81.554H308.176V83.554H310.176ZM319.12 83.554H321.12V81.554H319.12V83.554ZM315.508 102.818L316.97 104.183L316.978 104.175L316.985 104.167L315.508 102.818ZM294.524 102.818L293.047 104.167L293.055 104.175L293.062 104.183L294.524 102.818ZM294.524 49.068L295.986 50.4326L295.994 50.4246L296.001 50.4165L294.524 49.068ZM315.508 49.068L314.031 50.4165L314.039 50.4246L314.046 50.4326L315.508 49.068ZM319.12 66.096V68.096H321.12V66.096H319.12ZM310.176 66.096H308.176V68.096H310.176V66.096ZM310.176 85.554H319.12V81.554H310.176V85.554ZM317.12 83.554V91.552H321.12V83.554H317.12ZM317.12 91.552C317.12 96.1102 315.996 99.317 314.031 101.469L316.985 104.167C319.836 101.044 321.12 96.7405 321.12 91.552H317.12ZM314.046 101.453C312.121 103.516 309.224 104.688 305.016 104.688V108.688C309.982 108.688 314.079 107.28 316.97 104.183L314.046 101.453ZM305.016 104.688C300.809 104.688 297.911 103.516 295.986 101.453L293.062 104.183C295.953 107.28 300.05 108.688 305.016 108.688V104.688ZM296.001 101.469C294.036 99.317 292.912 96.1102 292.912 91.552H288.912C288.912 96.7405 290.196 101.044 293.047 104.167L296.001 101.469ZM292.912 91.552V60.248H288.912V91.552H292.912ZM292.912 60.248C292.912 55.6865 294.037 52.521 295.986 50.4326L293.062 47.7034C290.195 50.775 288.912 55.0629 288.912 60.248H292.912ZM296.001 50.4165C297.929 48.3049 300.822 47.112 305.016 47.112V43.112C300.037 43.112 295.935 44.5565 293.047 47.7195L296.001 50.4165ZM305.016 47.112C309.211 47.112 312.103 48.3049 314.031 50.4165L316.985 47.7195C314.097 44.5565 309.995 43.112 305.016 43.112V47.112ZM314.046 50.4326C315.995 52.521 317.12 55.6865 317.12 60.248H321.12C321.12 55.0629 319.837 50.775 316.97 47.7034L314.046 50.4326ZM317.12 60.248V66.096H321.12V60.248H317.12ZM319.12 64.096H310.176V68.096H319.12V64.096ZM312.176 66.096V59.646H308.176V66.096H312.176ZM312.176 59.646C312.176 57.4428 311.729 55.4184 310.493 53.9217C309.196 52.3519 307.328 51.712 305.274 51.712V55.712C306.489 55.712 307.072 56.0611 307.409 56.4693C307.806 56.9506 308.176 57.8932 308.176 59.646H312.176ZM305.274 51.712C303.221 51.712 301.353 52.3519 300.056 53.9217C298.819 55.4184 298.372 57.4428 298.372 59.646H302.372C302.372 57.8932 302.742 56.9506 303.14 56.4693C303.477 56.0611 304.06 55.712 305.274 55.712V51.712ZM298.372 59.646V92.154H302.372V59.646H298.372ZM298.372 92.154C298.372 94.334 298.822 96.3416 300.065 97.8248C301.365 99.3756 303.23 100.002 305.274 100.002V96.002C304.05 96.002 303.464 95.6537 303.13 95.2552C302.74 94.7891 302.372 93.8726 302.372 92.154H298.372ZM305.274 100.002C307.318 100.002 309.183 99.3756 310.483 97.8248C311.727 96.3416 312.176 94.334 312.176 92.154H308.176C308.176 93.8726 307.809 94.7891 307.418 95.2552C307.084 95.6537 306.498 96.002 305.274 96.002V100.002ZM312.176 92.154V83.554H308.176V92.154H312.176ZM143.968 192H141.968V194H143.968V192ZM143.968 131.8V129.8H141.968V131.8H143.968ZM153.428 131.8H155.428V129.8H153.428V131.8ZM153.428 183.4H151.428V185.4H153.428V183.4ZM164.178 183.4V185.4H166.178V183.4H164.178ZM164.178 131.8V129.8H162.178V131.8H164.178ZM173.81 131.8H175.81V129.8H173.81V131.8ZM173.81 183.572H171.81V185.572H173.81V183.572ZM177.938 183.572H179.938V181.572H177.938V183.572ZM177.938 200.084V202.084H179.938V200.084H177.938ZM168.736 200.084H166.736V202.084H168.736V200.084ZM168.736 192H170.736V190H168.736V192ZM145.968 192V131.8H141.968V192H145.968ZM143.968 133.8H153.428V129.8H143.968V133.8ZM151.428 131.8V183.4H155.428V131.8H151.428ZM153.428 185.4H164.178V181.4H153.428V185.4ZM166.178 183.4V131.8H162.178V183.4H166.178ZM164.178 133.8H173.81V129.8H164.178V133.8ZM171.81 131.8V183.572H175.81V131.8H171.81ZM173.81 185.572H177.938V181.572H173.81V185.572ZM175.938 183.572V200.084H179.938V183.572H175.938ZM177.938 198.084H168.736V202.084H177.938V198.084ZM170.736 200.084V192H166.736V200.084H170.736ZM168.736 190H143.968V194H168.736V190ZM195.144 140.4V138.4H193.144V140.4H195.144ZM195.144 157.17H193.144V159.17H195.144V157.17ZM208.13 157.17H210.13V155.17H208.13V157.17ZM208.13 165.77V167.77H210.13V165.77H208.13ZM195.144 165.77V163.77H193.144V165.77H195.144ZM195.144 183.4H193.144V185.4H195.144V183.4ZM211.484 183.4H213.484V181.4H211.484V183.4ZM211.484 192V194H213.484V192H211.484ZM185.684 192H183.684V194H185.684V192ZM185.684 131.8V129.8H183.684V131.8H185.684ZM211.484 131.8H213.484V129.8H211.484V131.8ZM211.484 140.4V142.4H213.484V140.4H211.484ZM193.144 140.4V157.17H197.144V140.4H193.144ZM195.144 159.17H208.13V155.17H195.144V159.17ZM206.13 157.17V165.77H210.13V157.17H206.13ZM208.13 163.77H195.144V167.77H208.13V163.77ZM193.144 165.77V183.4H197.144V165.77H193.144ZM195.144 185.4H211.484V181.4H195.144V185.4ZM209.484 183.4V192H213.484V183.4H209.484ZM211.484 190H185.684V194H211.484V190ZM187.684 192V131.8H183.684V192H187.684ZM185.684 133.8H211.484V129.8H185.684V133.8ZM209.484 131.8V140.4H213.484V131.8H209.484ZM211.484 138.4H195.144V142.4H211.484V138.4ZM229.387 166.2V164.2H227.387V166.2H229.387ZM229.387 192V194H231.387V192H229.387ZM219.927 192H217.927V194H219.927V192ZM219.927 131.8V129.8H217.927V131.8H219.927ZM229.387 131.8H231.387V129.8H229.387V131.8ZM229.387 157.6H227.387V159.6H229.387V157.6ZM240.137 157.6V159.6H242.137V157.6H240.137ZM240.137 131.8V129.8H238.137V131.8H240.137ZM249.769 131.8H251.769V129.8H249.769V131.8ZM249.769 192V194H251.769V192H249.769ZM240.137 192H238.137V194H240.137V192ZM240.137 166.2H242.137V164.2H240.137V166.2ZM227.387 166.2V192H231.387V166.2H227.387ZM229.387 190H219.927V194H229.387V190ZM221.927 192V131.8H217.927V192H221.927ZM219.927 133.8H229.387V129.8H219.927V133.8ZM227.387 131.8V157.6H231.387V131.8H227.387ZM229.387 159.6H240.137V155.6H229.387V159.6ZM242.137 157.6V131.8H238.137V157.6H242.137ZM240.137 133.8H249.769V129.8H240.137V133.8ZM247.769 131.8V192H251.769V131.8H247.769ZM249.769 190H240.137V194H249.769V190ZM242.137 192V166.2H238.137V192H242.137ZM240.137 164.2H229.387V168.2H240.137V164.2ZM256.456 140.4H254.456V142.4H256.456V140.4ZM256.456 131.8V129.8H254.456V131.8H256.456ZM285.696 131.8H287.696V129.8H285.696V131.8ZM285.696 140.4V142.4H287.696V140.4H285.696ZM275.806 140.4V138.4H273.806V140.4H275.806ZM275.806 192V194H277.806V192H275.806ZM266.346 192H264.346V194H266.346V192ZM266.346 140.4H268.346V138.4H266.346V140.4ZM258.456 140.4V131.8H254.456V140.4H258.456ZM256.456 133.8H285.696V129.8H256.456V133.8ZM283.696 131.8V140.4H287.696V131.8H283.696ZM285.696 138.4H275.806V142.4H285.696V138.4ZM273.806 140.4V192H277.806V140.4H273.806ZM275.806 190H266.346V194H275.806V190ZM268.346 192V140.4H264.346V192H268.346ZM266.346 138.4H256.456V142.4H266.346V138.4ZM301.902 169.382V167.382H299.902V169.382H301.902ZM301.902 192V194H303.902V192H301.902ZM292.442 192H290.442V194H292.442V192ZM292.442 131.8V129.8H290.442V131.8H292.442ZM301.902 140.4V138.4H299.902V140.4H301.902ZM301.902 160.782H299.902V162.782H301.902V160.782ZM309.814 159.492L308.352 158.127L308.327 158.154L308.303 158.182L309.814 159.492ZM309.814 141.69L308.303 143L308.327 143.028L308.352 143.055L309.814 141.69ZM306.374 133.8C310.739 133.8 313.652 134.946 315.501 136.895C317.368 138.865 318.478 142.001 318.478 146.678H322.478C322.478 141.436 321.238 137.133 318.404 134.144C315.55 131.134 311.412 129.8 306.374 129.8V133.8ZM318.478 146.678V154.504H322.478V146.678H318.478ZM318.478 154.504C318.478 159.181 317.368 162.317 315.501 164.287C313.652 166.236 310.739 167.382 306.374 167.382V171.382C311.412 171.382 315.55 170.048 318.404 167.038C321.238 164.049 322.478 159.746 322.478 154.504H318.478ZM306.374 167.382H301.902V171.382H306.374V167.382ZM299.902 169.382V192H303.902V169.382H299.902ZM301.902 190H292.442V194H301.902V190ZM294.442 192V131.8H290.442V192H294.442ZM292.442 133.8H306.374V129.8H292.442V133.8ZM306.374 138.4H301.902V142.4H306.374V138.4ZM299.902 140.4V160.782H303.902V140.4H299.902ZM301.902 162.782H306.374V158.782H301.902V162.782ZM306.374 162.782C308.283 162.782 310.077 162.242 311.325 160.802L308.303 158.182C308.061 158.462 307.561 158.782 306.374 158.782V162.782ZM311.276 160.857C312.606 159.432 313.018 157.327 313.018 155.106H309.018C309.018 157.013 308.628 157.832 308.352 158.127L311.276 160.857ZM313.018 155.106V146.076H309.018V155.106H313.018ZM313.018 146.076C313.018 143.855 312.606 141.75 311.276 140.325L308.352 143.055C308.628 143.35 309.018 144.169 309.018 146.076H313.018ZM311.325 140.38C310.077 138.94 308.283 138.4 306.374 138.4V142.4C307.561 142.4 308.061 142.72 308.303 143L311.325 140.38Z" fill="white"/>
<path d="M263.156 20.254V7.946C263.156 6.08733 263.609 4.62533 264.516 3.56C265.445 2.49467 266.805 1.962 268.596 1.962C270.387 1.962 271.747 2.49467 272.676 3.56C273.605 4.62533 274.07 6.08733 274.07 7.946V20.254C274.07 22.1127 273.605 23.5747 272.676 24.64C271.747 25.7053 270.387 26.238 268.596 26.238C266.828 26.238 265.479 25.7053 264.55 24.64C263.621 23.5747 263.156 22.1127 263.156 20.254ZM265.774 7.81V20.39C265.774 22.6793 266.715 23.824 268.596 23.824C270.477 23.824 271.418 22.6793 271.418 20.39V7.81C271.418 5.52067 270.477 4.376 268.596 4.376C266.715 4.376 265.774 5.52067 265.774 7.81ZM290.141 6.858L286.367 25.966H283.817L279.873 7.028V26H277.561V2.2H281.267L285.177 21.206L288.951 2.2H292.657V26H290.141V6.858ZM301.546 1.962C303.336 1.962 304.674 2.49467 305.558 3.56C306.464 4.62533 306.918 6.08733 306.918 7.946V10.088H304.402V7.81C304.402 5.52067 303.472 4.376 301.614 4.376C299.755 4.376 298.826 5.52067 298.826 7.81V20.39C298.826 22.6793 299.755 23.824 301.614 23.824C303.472 23.824 304.402 22.6793 304.402 20.39V17.296H306.918V20.254C306.918 22.1127 306.464 23.5747 305.558 24.64C304.674 25.7053 303.336 26.238 301.546 26.238C299.778 26.238 298.44 25.7053 297.534 24.64C296.65 23.5747 296.208 22.1127 296.208 20.254V7.946C296.208 6.08733 296.65 4.62533 297.534 3.56C298.44 2.49467 299.778 1.962 301.546 1.962ZM319.494 26L314.394 15.664L313 18.01V26H310.348V2.2H313V13.692L319.324 2.2H322.01L315.992 13.046L322.214 26H319.494Z" fill="white"/>
<path d="M16.3672 136.127H13.749V145H12.498V136.127H9.88672V135.047H16.3672V136.127ZM22.2598 141.657C22.2598 142.828 22.0479 143.701 21.624 144.275C21.2048 144.85 20.61 145.137 19.8398 145.137C19.097 145.137 18.5251 144.856 18.124 144.296V147.844H16.9209V137.604H18.0146L18.0762 138.424C18.4818 137.786 19.0628 137.467 19.8193 137.467C20.6305 137.467 21.2367 137.749 21.6377 138.314C22.0387 138.88 22.2461 139.725 22.2598 140.851V141.657ZM21.0566 140.967C21.0566 140.137 20.929 139.527 20.6738 139.135C20.4186 138.738 20.0085 138.54 19.4434 138.54C18.8646 138.54 18.4248 138.829 18.124 139.408V143.257C18.4202 143.822 18.8646 144.104 19.457 144.104C20.0039 144.104 20.4049 143.909 20.6602 143.517C20.9199 143.12 21.0521 142.516 21.0566 141.705V140.967ZM26.4639 145.137C25.5433 145.137 24.8369 144.863 24.3447 144.316C23.8525 143.765 23.6019 142.958 23.5928 141.896V141.001C23.5928 139.898 23.832 139.035 24.3105 138.41C24.7936 137.781 25.4658 137.467 26.3271 137.467C27.193 137.467 27.8402 137.743 28.2686 138.294C28.6969 138.845 28.9157 139.704 28.9248 140.871V141.664H24.7959V141.835C24.7959 142.628 24.944 143.204 25.2402 143.564C25.541 143.924 25.9717 144.104 26.5322 144.104C26.8877 144.104 27.1999 144.038 27.4688 143.906C27.7422 143.77 27.9974 143.555 28.2344 143.264L28.8633 144.029C28.3392 144.768 27.5394 145.137 26.4639 145.137ZM26.3271 138.506C25.8258 138.506 25.4544 138.679 25.2129 139.025C24.9714 139.367 24.8346 139.9 24.8027 140.625H27.7148V140.461C27.6829 139.759 27.5553 139.258 27.332 138.957C27.1133 138.656 26.7783 138.506 26.3271 138.506ZM35.5762 145H34.373V141.842H31.707V145H30.4902V137.604H31.707V140.81H34.373V137.604H35.5762V145ZM41.3115 145C41.2386 144.84 41.1862 144.572 41.1543 144.193C40.7259 144.822 40.179 145.137 39.5137 145.137C38.8438 145.137 38.3197 144.95 37.9414 144.576C37.5677 144.198 37.3809 143.667 37.3809 142.983C37.3809 142.231 37.6361 141.634 38.1465 141.192C38.6569 140.75 39.3564 140.525 40.2451 140.516H41.1338V139.729C41.1338 139.287 41.0358 138.973 40.8398 138.786C40.6439 138.599 40.3454 138.506 39.9443 138.506C39.5798 138.506 39.2835 138.615 39.0557 138.834C38.8278 139.048 38.7139 139.322 38.7139 139.654H37.5039C37.5039 139.276 37.6156 138.916 37.8389 138.574C38.0622 138.228 38.363 137.957 38.7412 137.761C39.1195 137.565 39.541 137.467 40.0059 137.467C40.7624 137.467 41.3366 137.656 41.7285 138.034C42.125 138.408 42.3278 138.955 42.3369 139.675V143.407C42.3415 143.977 42.4189 144.471 42.5693 144.891V145H41.3115ZM39.6982 144.036C39.9945 144.036 40.277 143.954 40.5459 143.79C40.8148 143.626 41.0107 143.421 41.1338 143.175V141.411H40.4502C39.876 141.42 39.4225 141.55 39.0898 141.801C38.7572 142.047 38.5908 142.393 38.5908 142.84C38.5908 143.259 38.6751 143.564 38.8438 143.756C39.0124 143.943 39.2972 144.036 39.6982 144.036ZM49.2412 141.787H48.5371V145H47.334V141.787H46.6299L45.085 145H43.5674L45.6934 141.145L43.752 137.604H45.208L46.6436 140.666H47.334V137.604H48.5371V140.666H49.2139L50.6699 137.604H52.126L50.1777 141.151L52.3037 145H50.7793L49.2412 141.787ZM55.9951 145.137C55.0745 145.137 54.3682 144.863 53.876 144.316C53.3838 143.765 53.1331 142.958 53.124 141.896V141.001C53.124 139.898 53.3633 139.035 53.8418 138.41C54.3249 137.781 54.9971 137.467 55.8584 137.467C56.7243 137.467 57.3714 137.743 57.7998 138.294C58.2282 138.845 58.4469 139.704 58.4561 140.871V141.664H54.3271V141.835C54.3271 142.628 54.4753 143.204 54.7715 143.564C55.0723 143.924 55.5029 144.104 56.0635 144.104C56.4189 144.104 56.7311 144.038 57 143.906C57.2734 143.77 57.5286 143.555 57.7656 143.264L58.3945 144.029C57.8704 144.768 57.0706 145.137 55.9951 145.137ZM55.8584 138.506C55.3571 138.506 54.9857 138.679 54.7441 139.025C54.5026 139.367 54.3659 139.9 54.334 140.625H57.2461V140.461C57.2142 139.759 57.0866 139.258 56.8633 138.957C56.6445 138.656 56.3096 138.506 55.8584 138.506ZM53.623 135.628C53.623 135.423 53.6846 135.252 53.8076 135.115C53.9352 134.974 54.1221 134.903 54.3682 134.903C54.6143 134.903 54.8011 134.974 54.9287 135.115C55.0563 135.252 55.1201 135.423 55.1201 135.628C55.1201 135.833 55.0563 136.004 54.9287 136.141C54.8011 136.277 54.6143 136.346 54.3682 136.346C54.1221 136.346 53.9352 136.277 53.8076 136.141C53.6846 136.004 53.623 135.833 53.623 135.628ZM56.5625 135.642C56.5625 135.437 56.624 135.263 56.7471 135.122C56.8747 134.981 57.0615 134.91 57.3076 134.91C57.5537 134.91 57.7406 134.981 57.8682 135.122C57.9958 135.263 58.0596 135.437 58.0596 135.642C58.0596 135.847 57.9958 136.018 57.8682 136.154C57.7406 136.291 57.5537 136.359 57.3076 136.359C57.0615 136.359 56.8747 136.291 56.7471 136.154C56.624 136.018 56.5625 135.847 56.5625 135.642ZM65.2578 141.657C65.2578 142.828 65.0459 143.701 64.6221 144.275C64.2028 144.85 63.6081 145.137 62.8379 145.137C62.0951 145.137 61.5231 144.856 61.1221 144.296V147.844H59.9189V137.604H61.0127L61.0742 138.424C61.4798 137.786 62.0609 137.467 62.8174 137.467C63.6286 137.467 64.2347 137.749 64.6357 138.314C65.0368 138.88 65.2441 139.725 65.2578 140.851V141.657ZM64.0547 140.967C64.0547 140.137 63.9271 139.527 63.6719 139.135C63.4167 138.738 63.0065 138.54 62.4414 138.54C61.8626 138.54 61.4229 138.829 61.1221 139.408V143.257C61.4183 143.822 61.8626 144.104 62.4551 144.104C63.002 144.104 63.403 143.909 63.6582 143.517C63.918 143.12 64.0501 142.516 64.0547 141.705V140.967ZM72.0117 145H70.8086V141.842H68.1426V145H66.9258V137.604H68.1426V140.81H70.8086V137.604H72.0117V145ZM75.252 140.153H76.7764C77.4827 140.158 78.0456 140.374 78.4648 140.803C78.8841 141.231 79.0938 141.814 79.0938 142.553C79.0938 143.291 78.8818 143.883 78.458 144.33C78.0342 144.772 77.4736 144.995 76.7764 145H74.0488V137.604H75.252V140.153ZM81.3496 145H80.1396V137.604H81.3496V145ZM75.252 141.186V143.968H76.7559C77.1113 143.968 77.387 143.847 77.583 143.605C77.7835 143.364 77.8838 143.029 77.8838 142.601C77.8838 142.181 77.7858 141.842 77.5898 141.582C77.3939 141.322 77.125 141.19 76.7832 141.186H75.252ZM87.4541 137.604H88.6572V145H87.4541V139.606L84.7744 145H83.5645V137.604H84.7744V143.004L87.4541 137.604ZM88.165 134.91C88.165 135.462 87.9759 135.906 87.5977 136.243C87.224 136.576 86.7318 136.742 86.1211 136.742C85.5104 136.742 85.016 136.574 84.6377 136.236C84.2594 135.899 84.0703 135.457 84.0703 134.91H85.1025C85.1025 135.229 85.1891 135.48 85.3623 135.662C85.5355 135.84 85.7884 135.929 86.1211 135.929C86.4401 135.929 86.6885 135.84 86.8662 135.662C87.0485 135.484 87.1396 135.234 87.1396 134.91H88.165ZM98.3438 139.62C98.3438 139.953 98.2594 140.258 98.0908 140.536C97.9222 140.814 97.6829 141.035 97.373 141.199C98.0977 141.495 98.46 142.07 98.46 142.922C98.46 143.61 98.2344 144.15 97.7832 144.542C97.3366 144.934 96.7464 145.13 96.0127 145.13C95.2881 145.13 94.6911 144.923 94.2217 144.508C93.7568 144.089 93.5244 143.523 93.5244 142.812H94.7207C94.7207 143.177 94.8438 143.487 95.0898 143.742C95.3359 143.997 95.6436 144.125 96.0127 144.125C96.3864 144.125 96.6849 144.013 96.9082 143.79C97.1361 143.567 97.25 143.277 97.25 142.922C97.25 142.507 97.1566 142.211 96.9697 142.033C96.7874 141.851 96.498 141.76 96.1016 141.76H94.9941V140.693H96.1836C96.8216 140.671 97.1406 140.315 97.1406 139.627C97.1406 139.281 97.0404 139.007 96.8398 138.807C96.6439 138.602 96.3704 138.499 96.0195 138.499C95.6777 138.499 95.3906 138.613 95.1582 138.841C94.9303 139.069 94.8164 139.344 94.8164 139.668H93.6201C93.6201 139.025 93.848 138.499 94.3037 138.089C94.7594 137.679 95.3314 137.474 96.0195 137.474C96.7533 137.474 97.3229 137.66 97.7285 138.034C98.1387 138.408 98.3438 138.937 98.3438 139.62ZM103.86 145C103.787 144.84 103.735 144.572 103.703 144.193C103.275 144.822 102.728 145.137 102.062 145.137C101.393 145.137 100.868 144.95 100.49 144.576C100.117 144.198 99.9297 143.667 99.9297 142.983C99.9297 142.231 100.185 141.634 100.695 141.192C101.206 140.75 101.905 140.525 102.794 140.516H103.683V139.729C103.683 139.287 103.585 138.973 103.389 138.786C103.193 138.599 102.894 138.506 102.493 138.506C102.129 138.506 101.832 138.615 101.604 138.834C101.377 139.048 101.263 139.322 101.263 139.654H100.053C100.053 139.276 100.164 138.916 100.388 138.574C100.611 138.228 100.912 137.957 101.29 137.761C101.668 137.565 102.09 137.467 102.555 137.467C103.311 137.467 103.885 137.656 104.277 138.034C104.674 138.408 104.877 138.955 104.886 139.675V143.407C104.89 143.977 104.968 144.471 105.118 144.891V145H103.86ZM102.247 144.036C102.543 144.036 102.826 143.954 103.095 143.79C103.364 143.626 103.56 143.421 103.683 143.175V141.411H102.999C102.425 141.42 101.971 141.55 101.639 141.801C101.306 142.047 101.14 142.393 101.14 142.84C101.14 143.259 101.224 143.564 101.393 143.756C101.561 143.943 101.846 144.036 102.247 144.036ZM111.981 137.604V145H110.771V138.649H108.823L108.707 141.158C108.643 142.548 108.456 143.535 108.146 144.118C107.837 144.697 107.34 144.991 106.656 145H106.253V143.886L106.561 143.858C106.898 143.813 107.135 143.587 107.271 143.182C107.413 142.771 107.506 141.967 107.552 140.769L107.668 137.604H111.981ZM6.89941 157.127H2.98242V166H1.72461V156.047H6.89941V157.127ZM12.2656 162.657C12.2656 163.828 12.0537 164.701 11.6299 165.275C11.2106 165.85 10.6159 166.137 9.8457 166.137C9.10286 166.137 8.53092 165.856 8.12988 165.296V168.844H6.92676V158.604H8.02051L8.08203 159.424C8.48763 158.786 9.06868 158.467 9.8252 158.467C10.6364 158.467 11.2425 158.749 11.6436 159.314C12.0446 159.88 12.252 160.725 12.2656 161.851V162.657ZM11.0625 161.967C11.0625 161.137 10.9349 160.527 10.6797 160.135C10.4245 159.738 10.0143 159.54 9.44922 159.54C8.87044 159.54 8.43066 159.829 8.12988 160.408V164.257C8.42611 164.822 8.87044 165.104 9.46289 165.104C10.0098 165.104 10.4108 164.909 10.666 164.517C10.9258 164.12 11.0579 163.516 11.0625 162.705V161.967ZM15.7656 163.99L17.1123 158.604H18.3975L15.9775 167.046C15.7952 167.679 15.5378 168.16 15.2051 168.488C14.8724 168.821 14.4941 168.987 14.0703 168.987C13.9062 168.987 13.6966 168.951 13.4414 168.878V167.853L13.708 167.88C14.0589 167.88 14.3324 167.796 14.5283 167.627C14.7288 167.463 14.8906 167.176 15.0137 166.766L15.2529 165.938L13.0791 158.604H14.3984L15.7656 163.99ZM24.7822 166H23.5791V159.649H20.9062V166H19.6895V158.604H24.7822V166ZM31.9189 166H30.7158V159.649H28.043V166H26.8262V158.604H31.9189V166ZM33.6006 161.96C33.6006 160.884 33.8604 160.035 34.3799 159.41C34.904 158.781 35.5944 158.467 36.4512 158.467C37.3079 158.467 37.9961 158.772 38.5156 159.383C39.0397 159.993 39.3086 160.825 39.3223 161.878V162.657C39.3223 163.728 39.0625 164.576 38.543 165.2C38.0234 165.825 37.3307 166.137 36.4648 166.137C35.6081 166.137 34.9199 165.834 34.4004 165.228C33.8854 164.621 33.6188 163.801 33.6006 162.767V161.96ZM34.8105 162.657C34.8105 163.418 34.9587 164.018 35.2549 164.455C35.5557 164.888 35.959 165.104 36.4648 165.104C37.5312 165.104 38.0804 164.334 38.1123 162.794V161.96C38.1123 161.203 37.9619 160.606 37.6611 160.169C37.3604 159.727 36.957 159.506 36.4512 159.506C35.9544 159.506 35.5557 159.727 35.2549 160.169C34.9587 160.606 34.8105 161.201 34.8105 161.953V162.657ZM40.9902 166V158.604H43.4717C44.3193 158.604 44.9665 158.777 45.4131 159.123C45.8597 159.469 46.083 159.973 46.083 160.634C46.083 160.976 45.9941 161.283 45.8164 161.557C45.6387 161.83 45.3789 162.04 45.0371 162.186C45.4154 162.286 45.7184 162.489 45.9463 162.794C46.1787 163.099 46.2949 163.468 46.2949 163.901C46.2949 164.585 46.0807 165.107 45.6523 165.467C45.2285 165.822 44.627 166 43.8477 166H40.9902ZM42.1934 162.753V164.981H43.8613C44.6771 164.981 45.085 164.608 45.085 163.86C45.085 163.122 44.6725 162.753 43.8477 162.753H42.1934ZM42.1934 161.741H43.458C44.4014 161.741 44.873 161.395 44.873 160.702C44.873 160.005 44.4287 159.647 43.54 159.629H42.1934V161.741ZM49.248 161.153H50.7725C51.4788 161.158 52.0417 161.374 52.4609 161.803C52.8802 162.231 53.0898 162.814 53.0898 163.553C53.0898 164.291 52.8779 164.883 52.4541 165.33C52.0303 165.772 51.4697 165.995 50.7725 166H48.0449V158.604H49.248V161.153ZM55.3457 166H54.1357V158.604H55.3457V166ZM49.248 162.186V164.968H50.752C51.1074 164.968 51.3831 164.847 51.5791 164.605C51.7796 164.364 51.8799 164.029 51.8799 163.601C51.8799 163.181 51.7819 162.842 51.5859 162.582C51.39 162.322 51.1211 162.19 50.7793 162.186H49.248ZM60.0967 166.137C59.1761 166.137 58.4697 165.863 57.9775 165.316C57.4854 164.765 57.2347 163.958 57.2256 162.896V162.001C57.2256 160.898 57.4648 160.035 57.9434 159.41C58.4264 158.781 59.0986 158.467 59.96 158.467C60.8258 158.467 61.473 158.743 61.9014 159.294C62.3298 159.845 62.5485 160.704 62.5576 161.871V162.664H58.4287V162.835C58.4287 163.628 58.5768 164.204 58.873 164.564C59.1738 164.924 59.6045 165.104 60.165 165.104C60.5205 165.104 60.8327 165.038 61.1016 164.906C61.375 164.77 61.6302 164.555 61.8672 164.264L62.4961 165.029C61.972 165.768 61.1722 166.137 60.0967 166.137ZM59.96 159.506C59.4587 159.506 59.0872 159.679 58.8457 160.025C58.6042 160.367 58.4674 160.9 58.4355 161.625H61.3477V161.461C61.3158 160.759 61.1882 160.258 60.9648 159.957C60.7461 159.656 60.4111 159.506 59.96 159.506ZM71.7656 160.62C71.7656 160.953 71.6813 161.258 71.5127 161.536C71.3441 161.814 71.1048 162.035 70.7949 162.199C71.5195 162.495 71.8818 163.07 71.8818 163.922C71.8818 164.61 71.6562 165.15 71.2051 165.542C70.7585 165.934 70.1683 166.13 69.4346 166.13C68.71 166.13 68.113 165.923 67.6436 165.508C67.1787 165.089 66.9463 164.523 66.9463 163.812H68.1426C68.1426 164.177 68.2656 164.487 68.5117 164.742C68.7578 164.997 69.0654 165.125 69.4346 165.125C69.8083 165.125 70.1068 165.013 70.3301 164.79C70.5579 164.567 70.6719 164.277 70.6719 163.922C70.6719 163.507 70.5785 163.211 70.3916 163.033C70.2093 162.851 69.9199 162.76 69.5234 162.76H68.416V161.693H69.6055C70.2435 161.671 70.5625 161.315 70.5625 160.627C70.5625 160.281 70.4622 160.007 70.2617 159.807C70.0658 159.602 69.7923 159.499 69.4414 159.499C69.0996 159.499 68.8125 159.613 68.5801 159.841C68.3522 160.069 68.2383 160.344 68.2383 160.668H67.042C67.042 160.025 67.2699 159.499 67.7256 159.089C68.1813 158.679 68.7533 158.474 69.4414 158.474C70.1751 158.474 70.7448 158.66 71.1504 159.034C71.5605 159.408 71.7656 159.937 71.7656 160.62ZM77.2822 166C77.2093 165.84 77.1569 165.572 77.125 165.193C76.6966 165.822 76.1497 166.137 75.4844 166.137C74.8145 166.137 74.2904 165.95 73.9121 165.576C73.5384 165.198 73.3516 164.667 73.3516 163.983C73.3516 163.231 73.6068 162.634 74.1172 162.192C74.6276 161.75 75.3271 161.525 76.2158 161.516H77.1045V160.729C77.1045 160.287 77.0065 159.973 76.8105 159.786C76.6146 159.599 76.3161 159.506 75.915 159.506C75.5505 159.506 75.2542 159.615 75.0264 159.834C74.7985 160.048 74.6846 160.322 74.6846 160.654H73.4746C73.4746 160.276 73.5863 159.916 73.8096 159.574C74.0329 159.228 74.3337 158.957 74.7119 158.761C75.0902 158.565 75.5117 158.467 75.9766 158.467C76.7331 158.467 77.3073 158.656 77.6992 159.034C78.0957 159.408 78.2985 159.955 78.3076 160.675V164.407C78.3122 164.977 78.3896 165.471 78.54 165.891V166H77.2822ZM75.6689 165.036C75.9652 165.036 76.2477 164.954 76.5166 164.79C76.7855 164.626 76.9814 164.421 77.1045 164.175V162.411H76.4209C75.8467 162.42 75.3932 162.55 75.0605 162.801C74.7279 163.047 74.5615 163.393 74.5615 163.84C74.5615 164.259 74.6458 164.564 74.8145 164.756C74.9831 164.943 75.2679 165.036 75.6689 165.036ZM85.3828 166H84.1797V162.842H81.5137V166H80.2969V158.604H81.5137V161.81H84.1797V158.604H85.3828V166ZM92.1436 158.604V166H90.9336V163.122H89.5049L88.0146 166H86.7158L88.3154 162.91C87.9144 162.737 87.609 162.47 87.3994 162.11C87.1898 161.75 87.085 161.333 87.085 160.859C87.085 160.18 87.3037 159.636 87.7412 159.226C88.1787 158.811 88.7666 158.604 89.5049 158.604H92.1436ZM88.2949 160.873C88.2949 161.238 88.3929 161.532 88.5889 161.755C88.7848 161.974 89.0492 162.083 89.3818 162.083H90.9336V159.629H89.4912C89.1312 159.629 88.8418 159.745 88.623 159.978C88.4043 160.205 88.2949 160.504 88.2949 160.873ZM98.7402 159.629H96.7236V166H95.5205V159.629H93.5312V158.604H98.7402V159.629ZM104.011 158.604H105.214V166H104.011V160.606L101.331 166H100.121V158.604H101.331V164.004L104.011 158.604ZM111.981 158.604V166H110.771V163.122H109.343L107.853 166H106.554L108.153 162.91C107.752 162.737 107.447 162.47 107.237 162.11C107.028 161.75 106.923 161.333 106.923 160.859C106.923 160.18 107.142 159.636 107.579 159.226C108.017 158.811 108.604 158.604 109.343 158.604H111.981ZM108.133 160.873C108.133 161.238 108.231 161.532 108.427 161.755C108.623 161.974 108.887 162.083 109.22 162.083H110.771V159.629H109.329C108.969 159.629 108.68 159.745 108.461 159.978C108.242 160.205 108.133 160.504 108.133 160.873ZM42.7334 182.529H41.79V187H40.5391V177.047H41.79V181.436H42.5557L45.3584 177.047H46.917L43.7588 181.859L47.1494 187H45.6182L42.7334 182.529ZM51.9619 187C51.889 186.84 51.8366 186.572 51.8047 186.193C51.3763 186.822 50.8294 187.137 50.1641 187.137C49.4941 187.137 48.9701 186.95 48.5918 186.576C48.2181 186.198 48.0312 185.667 48.0312 184.983C48.0312 184.231 48.2865 183.634 48.7969 183.192C49.3073 182.75 50.0068 182.525 50.8955 182.516H51.7842V181.729C51.7842 181.287 51.6862 180.973 51.4902 180.786C51.2943 180.599 50.9958 180.506 50.5947 180.506C50.2301 180.506 49.9339 180.615 49.7061 180.834C49.4782 181.048 49.3643 181.322 49.3643 181.654H48.1543C48.1543 181.276 48.266 180.916 48.4893 180.574C48.7126 180.228 49.0133 179.957 49.3916 179.761C49.7699 179.565 50.1914 179.467 50.6562 179.467C51.4128 179.467 51.987 179.656 52.3789 180.034C52.7754 180.408 52.9782 180.955 52.9873 181.675V185.407C52.9919 185.977 53.0693 186.471 53.2197 186.891V187H51.9619ZM50.3486 186.036C50.6449 186.036 50.9274 185.954 51.1963 185.79C51.4652 185.626 51.6611 185.421 51.7842 185.175V183.411H51.1006C50.5264 183.42 50.0729 183.55 49.7402 183.801C49.4076 184.047 49.2412 184.393 49.2412 184.84C49.2412 185.259 49.3255 185.564 49.4941 185.756C49.6628 185.943 49.9476 186.036 50.3486 186.036ZM60.2129 183.657C60.2129 184.828 60.001 185.701 59.5771 186.275C59.1579 186.85 58.5632 187.137 57.793 187.137C57.0501 187.137 56.4782 186.856 56.0771 186.296V189.844H54.874V179.604H55.9678L56.0293 180.424C56.4349 179.786 57.016 179.467 57.7725 179.467C58.5837 179.467 59.1898 179.749 59.5908 180.314C59.9919 180.88 60.1992 181.725 60.2129 182.851V183.657ZM59.0098 182.967C59.0098 182.137 58.8822 181.527 58.627 181.135C58.3717 180.738 57.9616 180.54 57.3965 180.54C56.8177 180.54 56.3779 180.829 56.0771 181.408V185.257C56.3734 185.822 56.8177 186.104 57.4102 186.104C57.957 186.104 58.3581 185.909 58.6133 185.517C58.873 185.12 59.0052 184.516 59.0098 183.705V182.967ZM61.6348 185.968L61.9971 185.448C62.389 184.847 62.6146 183.96 62.6738 182.789L62.7764 179.604H66.9053V185.968H67.7666V189.174H66.5566V187H62.3525V189.174H61.1357L61.1426 185.968H61.6348ZM62.9814 185.968H65.7021V180.772H63.9521L63.8906 182.577C63.8268 184.017 63.5238 185.147 62.9814 185.968ZM73.1533 179.604H74.3564V187H73.1533V181.606L70.4736 187H69.2637V179.604H70.4736V185.004L73.1533 179.604ZM76.0381 182.96C76.0381 181.884 76.2979 181.035 76.8174 180.41C77.3415 179.781 78.0319 179.467 78.8887 179.467C79.7454 179.467 80.4336 179.772 80.9531 180.383C81.4772 180.993 81.7461 181.825 81.7598 182.878V183.657C81.7598 184.728 81.5 185.576 80.9805 186.2C80.4609 186.825 79.7682 187.137 78.9023 187.137C78.0456 187.137 77.3574 186.834 76.8379 186.228C76.3229 185.621 76.0563 184.801 76.0381 183.767V182.96ZM77.248 183.657C77.248 184.418 77.3962 185.018 77.6924 185.455C77.9932 185.888 78.3965 186.104 78.9023 186.104C79.9688 186.104 80.5179 185.334 80.5498 183.794V182.96C80.5498 182.203 80.3994 181.606 80.0986 181.169C79.7979 180.727 79.3945 180.506 78.8887 180.506C78.3919 180.506 77.9932 180.727 77.6924 181.169C77.3962 181.606 77.248 182.201 77.248 182.953V183.657ZM85.5605 183.288H82.7373V182.256H85.5605V183.288ZM91.3301 181.62C91.3301 181.953 91.2458 182.258 91.0771 182.536C90.9085 182.814 90.6693 183.035 90.3594 183.199C91.084 183.495 91.4463 184.07 91.4463 184.922C91.4463 185.61 91.2207 186.15 90.7695 186.542C90.3229 186.934 89.7327 187.13 88.999 187.13C88.2744 187.13 87.6774 186.923 87.208 186.508C86.7432 186.089 86.5107 185.523 86.5107 184.812H87.707C87.707 185.177 87.8301 185.487 88.0762 185.742C88.3223 185.997 88.6299 186.125 88.999 186.125C89.3727 186.125 89.6712 186.013 89.8945 185.79C90.1224 185.567 90.2363 185.277 90.2363 184.922C90.2363 184.507 90.1429 184.211 89.9561 184.033C89.7738 183.851 89.4844 183.76 89.0879 183.76H87.9805V182.693H89.1699C89.8079 182.671 90.127 182.315 90.127 181.627C90.127 181.281 90.0267 181.007 89.8262 180.807C89.6302 180.602 89.3568 180.499 89.0059 180.499C88.6641 180.499 88.377 180.613 88.1445 180.841C87.9167 181.069 87.8027 181.344 87.8027 181.668H86.6064C86.6064 181.025 86.8343 180.499 87.29 180.089C87.7458 179.679 88.3177 179.474 89.0059 179.474C89.7396 179.474 90.3092 179.66 90.7148 180.034C91.125 180.408 91.3301 180.937 91.3301 181.62ZM92.7861 182.96C92.7861 181.884 93.0459 181.035 93.5654 180.41C94.0895 179.781 94.7799 179.467 95.6367 179.467C96.4935 179.467 97.1816 179.772 97.7012 180.383C98.2253 180.993 98.4941 181.825 98.5078 182.878V183.657C98.5078 184.728 98.248 185.576 97.7285 186.2C97.209 186.825 96.5163 187.137 95.6504 187.137C94.7936 187.137 94.1055 186.834 93.5859 186.228C93.071 185.621 92.8044 184.801 92.7861 183.767V182.96ZM93.9961 183.657C93.9961 184.418 94.1442 185.018 94.4404 185.455C94.7412 185.888 95.1445 186.104 95.6504 186.104C96.7168 186.104 97.266 185.334 97.2979 183.794V182.96C97.2979 182.203 97.1475 181.606 96.8467 181.169C96.5459 180.727 96.1426 180.506 95.6367 180.506C95.14 180.506 94.7412 180.727 94.4404 181.169C94.1442 181.606 93.9961 182.201 93.9961 182.953V183.657ZM105.262 187H104.059V183.842H101.393V187H100.176V179.604H101.393V182.81H104.059V179.604H105.262V187ZM110.997 187C110.924 186.84 110.872 186.572 110.84 186.193C110.411 186.822 109.865 187.137 109.199 187.137C108.529 187.137 108.005 186.95 107.627 186.576C107.253 186.198 107.066 185.667 107.066 184.983C107.066 184.231 107.322 183.634 107.832 183.192C108.342 182.75 109.042 182.525 109.931 182.516H110.819V181.729C110.819 181.287 110.721 180.973 110.525 180.786C110.329 180.599 110.031 180.506 109.63 180.506C109.265 180.506 108.969 180.615 108.741 180.834C108.513 181.048 108.399 181.322 108.399 181.654H107.189C107.189 181.276 107.301 180.916 107.524 180.574C107.748 180.228 108.049 179.957 108.427 179.761C108.805 179.565 109.227 179.467 109.691 179.467C110.448 179.467 111.022 179.656 111.414 180.034C111.811 180.408 112.013 180.955 112.022 181.675V185.407C112.027 185.977 112.104 186.471 112.255 186.891V187H110.997ZM109.384 186.036C109.68 186.036 109.963 185.954 110.231 185.79C110.5 185.626 110.696 185.421 110.819 185.175V183.411H110.136C109.562 183.42 109.108 183.55 108.775 183.801C108.443 184.047 108.276 184.393 108.276 184.84C108.276 185.259 108.361 185.564 108.529 185.756C108.698 185.943 108.983 186.036 109.384 186.036Z" fill="white"/>
</svg>
